<?xml version="1.0" encoding="UTF-8"?>
<svg id="_レイヤー_2" data-name="レイヤー 2" xmlns="http://www.w3.org/2000/svg" viewBox="0 0 394.51 68.55">
  <g id="_スウォッチ情報レイヤー" data-name="スウォッチ情報レイヤー">
    <g>
      <g>
        <path d="M177.79,33.05c-.14,1.01-.58,1.66-1.73,1.94-2.3,6.91-5.26,12.38-8.86,16.71,3.89,1.37,7.27,2.81,10.01,4.32,4.82,2.59,7.78,5.11,7.78,7.27,0,1.66-1.01,2.81-2.66,2.81-1.3,0-2.74-.65-6.26-3.46-3.53-2.74-7.7-5.26-12.17-7.42-2.02,1.87-4.25,3.53-6.55,4.9-7.06,4.25-17.71,6.7-28.08,6.91l-.29-1.3c9.86-1.15,19.66-4.46,26.07-9.36,1.44-1.01,2.74-2.16,3.96-3.38-4.54-1.87-9.07-3.46-13.75-4.75l-1.01,1.87c-.65,1.15-1.73,1.66-3.31,1.66-2.45,0-3.24-.65-3.24-1.94,3.24-5.33,6.41-10.94,9.5-16.78h-12.46l-7.27.36v-2.95l7.27.36h13.61c2.38-4.54,4.61-9.29,6.77-14.11,6.48,1.87,7.42,2.67,7.42,3.46,0,.86-.94,1.44-3.24,1.73l-4.75,8.93h25.71c1.51-1.8,3.02-3.53,4.61-5.26,6.91,4.97,7.56,5.83,7.56,6.55,0,.58-.5.94-1.15.94h-13.46ZM156.69,10.87v-2.16c0-3.38-.14-5.26-.29-7.49,7.27.58,8.86,1.22,8.86,2.09,0,.72-.58,1.3-2.81,2.16v5.4h20.02c1.66-2.88,2.38-3.17,3.1-3.17s1.37.22,3.89,2.38c2.3,1.94,2.59,2.66,2.59,3.38,0,.79-1.01,1.58-3.74,1.94-2.52,2.16-5.33,4.25-7.63,5.69l-1.08-.79c1.3-2.38,2.3-4.46,3.24-7.2h-46.44c.07.43.07.79.07,1.22,0,5.83-3.31,8.21-5.9,8.21-1.73,0-3.02-1.15-3.02-2.74-.07-1.51.65-2.66,2.16-3.82,2.88-2.3,3.96-4.9,3.96-8.42l1.3-.14c.43,1.01.79,2.16,1.08,3.46h20.67ZM146.18,46.52c5.26.72,10.44,1.94,15.55,3.46,2.16-2.66,3.89-5.54,5.4-8.64,1.3-2.67,2.23-5.47,3.17-8.28h-16.99l-7.13,13.47Z"/>
        <path d="M257.49,51.12c3.53,3.1,7.85,5.33,12.24,6.91,3.96-3.1,7.34-6.48,10.37-10.73,5.9,2.66,6.62,3.24,6.62,3.96,0,.79-.79,1.3-3.46,1.3-2.88,2.16-6.55,4.39-10.87,6.34,5.9,1.87,12.75,2.95,20.23,3.1l-.07,1.37c-2.88.79-4.32,2.59-5.04,4.83-9.29-1.15-17.5-4.25-23.91-8.79-9.72,3.02-19.66,5.69-27.51,7.2-.5,1.3-.79,1.94-1.58,1.94-.86,0-1.51-1.08-3.38-7.34,3.96-.22,7.92-.58,11.88-1.01v-18.65c0-2.38,0-4.32-.07-6.34-4.54,4.18-9.86,7.71-15.62,10.23l-.72-1.15c7.13-4.68,13.9-11.74,17.71-18.72h-10.15l-7.2.36v-2.95l7.2.36h23.33v-4.75h-14.62l-7.06.36v-2.95l7.06.36h14.62v-4.39h-19.73l-7.2.36v-2.95l7.2.36h12.46c-.5-.29-.94-.86-1.15-1.66-.86-2.81-2.59-5.11-4.68-6.55l.65-1.15c6.41.86,9.58,3.82,9.58,6.62,0,1.3-.58,2.23-1.51,2.74h11.95c1.58-3.1,2.95-6.12,4.25-9.72,6.62,2.16,7.34,2.74,7.34,3.46s-.65,1.3-2.88,1.58c-1.8,1.51-3.6,3.1-5.83,4.68h13.97c1.08-1.37,2.52-3.02,3.89-4.46,5.98,4.25,6.62,5.11,6.62,5.83,0,.5-.43.86-1.15.86h-27.15c-.14.79-.5,1.22-1.15,1.58v2.81h14.69c1.15-1.37,2.09-2.52,3.31-3.74,5.47,3.74,5.98,4.54,5.98,5.11,0,.5-.43.86-1.15.86h-22.83v4.75h20.45c1.22-1.51,2.23-2.74,3.67-4.39,5.83,4.1,6.55,5.11,6.55,5.69,0,.5-.43.94-1.15.94h-20.02c5.04,5.62,13.11,10.22,22.54,12.31l-.22,1.3c-2.81.43-4.61,2.09-5.62,4.18-8.28-3.6-14.91-9.72-19.01-17.79h-18c-.14.94-.79,1.51-2.23,1.73-1.44,1.94-3.02,3.82-4.68,5.62,1.3.5,2.74.86,3.96,1.58h8.35v-1.37c0-1.87-.07-3.46-.29-5.83,7.56.72,7.92,1.01,7.92,1.87,0,.65-.5,1.3-2.52,1.87v3.46h7.85c.86-1.8,1.37-2.23,1.94-2.23.72,0,1.15.22,3.1,1.66,1.87,1.51,2.16,1.87,2.16,2.45s-.43,1.01-1.87,1.8v3.17c0,5.18.22,7.85.22,9.29s-2.09,2.3-4.03,2.3c-.86,0-1.44-.43-1.44-1.3v-.5h-13.1ZM248.92,36.72l-.72.79v3.96h22.39v-4.75h-21.67ZM270.6,43.71h-22.39v5.18h22.39v-5.18ZM248.2,59.69c4.46-.58,9-1.08,13.39-1.8-2.45-1.94-4.46-4.25-6.41-6.77h-6.98v8.57Z"/>
        <path d="M337.05,7.49l-.72.86v56.53c0,1.66-2.09,2.59-4.03,2.59-1.22,0-1.66-.5-1.66-1.44,0-2.23.43-8.42.43-51.7,0-4.03-.14-8.06-.29-12.02,4.46,1.51,6.26,2.3,6.91,2.95h5.76c1.08-2.38,1.73-2.88,2.45-2.88.79,0,1.58.29,3.82,2.16,1.51,1.3,2.02,2.02,2.02,2.81s-.72,1.3-2.81,2.02c-2.23,5.83-5.47,12.17-8.35,16.92,6.98,4.03,9.43,8.64,9.43,14.04,0,6.55-2.88,9.79-8.86,10.23-.36-2.67-1.01-3.96-4.25-4.83l.07-1.37c1.87.22,2.81.29,4.54.29s2.95-1.01,2.95-4.75c0-4.82-1.44-9.07-5.91-13.18,2.09-6.19,3.75-12.46,5.04-19.23h-6.55ZM379.32,39.89c-.07.86-.5,1.44-1.37,1.66v17.07c0,1.51.94,1.94,4.39,1.94,4.54,0,5.47-.43,6.55-2.38,1.01-1.87,1.73-3.74,2.52-6.34l1.3.22c-.43,2.95-.65,5.18-.65,6.48s2.09,1.58,2.09,3.17c0,2.38-2.59,3.75-11.74,3.75-8.5,0-10.08-1.22-10.08-4.83,0-2.81.36-6.91.36-16.06v-4.68h-4.75c-.14.86-.58,1.44-1.66,1.73-2.38,15.05-12.38,23.19-27.15,25.78l-.58-1.22c12.39-4.03,20.67-12.75,22.25-26.28h-2.38l-6.34.36v-2.95l6.34.36h23.62c1.37-1.58,2.95-3.46,4.54-5.11,6.48,5.04,6.98,5.83,6.98,6.55,0,.5-.36.79-1.01.79h-13.25ZM356.28,14.19c.14.79.22,1.58.22,2.38,0,4.61-2.45,7.13-5.54,7.13-1.51,0-2.74-1.08-2.74-2.66,0-1.3.72-2.45,2.23-3.75,1.66-1.44,2.45-3.1,2.45-4.97,0-1.08-.07-2.38-.22-3.17l1.3-.36c.72,1.01,1.3,2.09,1.66,3.17h12.03v-4.1c0-2.81-.07-5.62-.22-7.27,7.34.65,8.21,1.22,8.21,1.94,0,.58-.36,1.22-2.67,2.02v7.42h12.67c1.51-2.52,2.02-2.81,2.66-2.81s1.37.14,3.67,2.09c2.23,1.87,2.52,2.52,2.52,3.31,0,.86-.86,1.51-3.82,2.09-1.87,1.87-3.96,3.82-6.12,5.4l-1.08-.79c.94-2.09,1.66-4.32,2.38-7.06h-29.59ZM376.44,25.92c1.22-1.51,2.74-3.17,4.25-4.75,5.83,4.68,6.41,5.47,6.41,6.19,0,.5-.36.79-1.01.79h-25.13l-6.26.36v-2.95l6.26.36h15.48Z"/>
      </g>
      <g>
        <path d="M12.82,15.96c1.59,5.04,5.12,9.02,11.47,11.05l-.1.44c-1.12.1-1.9.83-2.37,1.66-4.89-2.29-8.42-6.73-9.41-12.27-.44,2.86-1.38,4.99-2.73,6.87-2.05,2.89-5.69,4.91-9.46,5.77l-.21-.42c3.3-1.33,6.21-3.38,8.03-6.32,1.14-1.82,1.92-3.93,2.26-6.79h-6.24l-2.6.13v-1.07l2.6.13h6.32c.08-.88.1-1.82.1-2.83v-2.94H2.86l-2.6.13v-1.07l2.6.13h16.82c.49-.65,1.09-1.38,1.66-2,2.57,1.9,2.78,2.29,2.78,2.5,0,.18-.16.31-.42.31h-10.58c-.03.31-.18.47-.42.57v2.5c0,.96-.03,1.87-.1,2.7h5.72c.52-.65,1.07-1.33,1.61-1.95,2.52,1.9,2.73,2.24,2.73,2.44,0,.18-.16.31-.42.31h-9.44Z"/>
        <path d="M54.57,9.9c2.08.7,4.45,2.24,5.8,3.8.81.91,1.12,1.64,1.12,2.29,0,.78-.52,1.27-1.14,1.27-.57,0-.99-.42-1.25-1.04-.29-.62-.62-1.25-.99-1.85-6.14.96-11.31,1.59-16.95,2-.26.73-.47.88-.78.88-.36,0-.6-.42-1.38-3.07,1.87.03,3.64.03,5.38,0,1.46-2.47,2.65-5.23,3.51-7.98,2.78.88,3.15,1.12,3.15,1.46,0,.31-.29.55-1.3.65-1.3,2.13-2.63,3.98-4.34,5.88,4.08-.1,8.16-.26,12.22-.57-.94-1.3-2.05-2.47-3.25-3.28l.21-.44ZM55.77,19.58c.44-.91.73-1.07.96-1.07.26,0,.52.1,1.25.65.81.62.94.86.94,1.12,0,.29-.26.52-.86.83v1.79c0,3.02.13,4.81.13,5.62,0,.65-.81.99-1.69.99-.36,0-.55-.18-.55-.52v-1.09h-10.66v.88c0,.57-.73.96-1.61.96-.42,0-.6-.16-.6-.49,0-.7.1-2.76.1-6.24,0-2.29,0-3.35-.05-4.47,1.64.52,2.34.81,2.65,1.04h9.98ZM55.95,20.38h-10.35l-.31.34v6.37h10.66v-6.71Z"/>
        <path d="M76.83,28.99c2.57-2.03,5.02-4.97,6.66-8.19,2.31.99,2.65,1.22,2.65,1.59,0,.26-.31.47-1.22.52-1.66,2.47-4.68,5.02-7.8,6.5l-.29-.42ZM90.56,19.26c-.08.29-.23.42-.44.52v1.56c0,3.69.16,5.25.16,6.32,0,1.38-1.25,2.29-3.33,2.37-.23-1.14-.65-1.59-2.65-2.13l.03-.47c.94.08,1.79.13,2.68.13s1.09-.21,1.09-1.2v-7.1h-8.29l-2.63.13v-1.07l2.63.13h16.75c.52-.68,1.09-1.33,1.72-2,2.55,1.87,2.73,2.21,2.73,2.5,0,.18-.18.31-.42.31h-10.01ZM87.85,9.38v-.55c0-1.35-.03-1.9-.1-2.7,2.63.21,3.2.44,3.2.75,0,.26-.18.47-1.01.78v1.72h7.54c.57-.94.78-1.12,1.01-1.12.26,0,.49.13,1.4.91.83.7.94.99.94,1.27,0,.26-.36.52-1.35.68-.83.75-1.72,1.43-2.76,2.08l-.31-.26c.47-.94.86-1.74,1.17-2.76h-16.75v.31c0,1.85-1.12,3.12-2.42,3.12-.62,0-1.07-.42-1.07-.99s.31-.96.86-1.3c1.2-.68,1.74-1.59,1.74-2.99l.47-.03c.13.31.23.68.31,1.07h7.12ZM92.33,14.01c.52-.62.96-1.17,1.51-1.74,2.21,1.61,2.47,1.98,2.47,2.24,0,.18-.16.31-.42.31h-12.43l-2.63.13v-1.07l2.63.13h8.87ZM92.87,21.19c2.08.7,4.26,2.16,5.56,3.69.73.83,1.01,1.53,1.01,2.21,0,.86-.47,1.43-1.14,1.43-.55,0-.94-.39-1.27-1.22-.86-2.11-2.52-4.32-4.42-5.75l.26-.36Z"/>
        <path d="M19.79,62.58c.47-.6.99-1.12,1.59-1.77,2.47,1.72,2.63,2.03,2.63,2.24s-.16.34-.42.34H3.3v.96c0,.57-.73,1.01-1.56,1.01-.42,0-.62-.18-.62-.49,0-.83.16-3.54.16-18.57,0-1.43-.03-2.91-.08-4.32,1.53.49,2.24.78,2.55,1.01h14.56c.52-.68,1.04-1.3,1.72-2.03,2.44,1.87,2.73,2.24,2.73,2.52,0,.18-.16.31-.39.31H3.69l-.39.44v18.33h16.48ZM19.16,53.12c.47-.6.99-1.22,1.56-1.82,2.37,1.79,2.52,2.05,2.52,2.31,0,.21-.16.31-.39.31h-9.02c1.61,2.52,4.5,4.68,8.01,5.62l-.16.44c-.83.08-1.64.73-2.05,1.51-2.83-1.48-5.15-3.98-6.32-7.12-.49,1.64-1.22,2.99-2.18,4.06-1.56,1.77-3.9,3.12-6.68,3.8l-.21-.44c2.37-1.01,4.26-2.5,5.62-4.34.73-.99,1.25-2.08,1.61-3.51h-4.76l-2.5.13v-1.07l2.5.13h4.91c.26-1.46.34-2.94.36-4.42h-3.33c-.94,1.4-2.08,2.7-3.38,3.72l-.36-.29c1.46-2,2.6-4.58,3.56-7.85,2.42.62,2.71.78,2.71,1.07s-.23.49-1.09.7c-.26.62-.57,1.25-.94,1.85h8.48c.47-.57.99-1.22,1.53-1.79,2.31,1.74,2.5,2.03,2.5,2.26,0,.18-.16.34-.42.34h-6.71c-.05.34-.18.49-.47.6-.03,1.4-.18,2.68-.42,3.82h5.51Z"/>
        <path d="M49.24,44.7h-7.38l-2.6.13v-1.07l2.6.13h15.63c.52-.65,1.17-1.4,1.69-1.92,2.52,1.92,2.7,2.24,2.7,2.42s-.16.31-.42.31h-9.54c-.05.29-.21.44-.44.55v7.44h4.52c.47-.6,1.01-1.22,1.66-1.87,2.44,1.9,2.57,2.16,2.57,2.37,0,.18-.16.31-.42.31h-8.35v8.74h6.24c.52-.68,1.25-1.48,1.82-2.08,2.7,2.11,2.83,2.37,2.83,2.57,0,.18-.16.31-.42.31h-20.59l-2.6.13v-1.07l2.6.13h7.88v-8.74h-5.82l-2.6.13v-1.07l2.6.13h5.82v-7.98Z"/>
        <path d="M80.7,61.54v2.6c0,.49-.78.94-1.64.94-.44,0-.65-.18-.65-.57,0-1.09.13-4,.13-14.4,0-2.05-.03-3.04-.1-4.13,3.07.31,3.38.49,3.38.81,0,.23-.21.49-1.12.83v13.13h7.05v-14.27c0-2.21-.03-3.51-.1-4.6,3.15.26,3.48.44,3.48.78,0,.23-.21.49-1.14.86v17.24h7.18v-11.08c0-2.05-.03-3.04-.08-4.13,3.07.29,3.38.47,3.38.81,0,.23-.21.47-1.12.83v2.44c0,10.4.16,13.18.16,13.94,0,.49-.81.91-1.72.91-.42,0-.62-.16-.62-.47v-2.44h-16.46Z"/>
      </g>
    </g>
  </g>
</svg>