<?xml version="1.0" encoding="UTF-8"?>
<svg id="_レイヤー_2" data-name="レイヤー 2" xmlns="http://www.w3.org/2000/svg" viewBox="0 0 220.44 69.2">
  <g id="_レイヤー_3" data-name="レイヤー 3">
    <g>
      <path d="M213.22,59.52h-42.68c0,1.87.17,4-.22,5.06-.97,2.61-4.39,3.53-6.74,2.36l.33-41.91-1.43-3.55c2.04-2.81,5.95-4.74,7.49-3.56.46.35,1.08,1.61,1.04,2.25l-.52,8.31-.03,27.39h17.7s-.21-47.08-.21-47.08l-1.65-2.88c.37-3.2,2.85-5.98,6.46-5.91,1.15.02,2.63,2.19,2.57,3.39l-.44,7.93-.56,44.52,19,.04v-29.9s-1.33-4.54-1.33-4.54c2.02-2.81,5.68-4.73,7.41-3.47.48.34,1.07,1.67,1.03,2.27l-.49,6.71.46,36.47c.04,2.81-4.62,4.24-6.69,3.09-.59-2.2-.59-3.54-.49-6.99Z"/>
      <path d="M78.73,62.85c-1.1-.96-.41-4.35,1.18-5.24,1.35-.76,3.41.48,4.75.49l23.14.1.36-23.73-15.79.22c-1.7.02-3.6,1.5-5.49.55-1.27-2.02-.54-4.96,1.8-6.08l5.44.95,13.98.11-.5-20.82-17.84.17c-1.61.01-3.5,1.62-5.34.59-1.31-1.89-.57-5.2,1.9-6.1l4.39.98,40.41.04c1.14-1.86,2.64-3.29,4.44-3.41,3.32-.23,6.27,3.76,5.26,6.21-.33.79-2.11,1.59-3.13,1.59l-23.54-.06-.31,20.8,13.87-.02c.7-.88,1.61-2.16,2.36-2.74,1.54-1.2,3.85-.46,5.11.68s1.89,2.62,1.98,4.79c-1.07,1-2.45,1.64-3.93,1.64l-19.41-.1.38,23.74,21.82-.06c1.19-1.83,2.71-3.42,4.48-3.45,3.2-.07,6.1,3.55,5.34,6.18-.21.72-1.74,1.57-2.72,1.57l-58.31.03c-1.87,0-3.98,2.23-6.09.39Z"/>
      <path d="M58.35,55.11c3.34-.19,6.36,2.35,5.63,5.77-.24,1.09-2.9,1.74-4.26,1.73l-52.11-.17c.52,3.26.03,5.32-2.48,6.49-.74.34-2.42.39-3.07-.01s-1.2-2.04-1.16-2.91l.67-12.63.18-42.78L0,5.96c.89-1.81,2.6-3.63,4.4-4.18,1.73-.53,3.13.92,3.58,2.89h43.2c.88-1.08,2.08-2.37,3-2.48,2.64-.31,5.62,1.9,5.16,4.54-.18,1.04-1.72,1.78-3.13,1.84H7.69s-.09,49.52-.09,49.52l47.96-.02,2.79-2.96Z"/>
      <path d="M35.53,34.42c-4.42,20.65-27.9,20.34-26.38,18.76,1.98-2.06,16.6-3.98,20.47-18.69-5.83-.16-10.97.06-16.2.97-.95-.62-1.31-2.41-.84-3.37.58-1.16,1.93-1.39,3.34-1.36l14.51.3.29-9.07-8.26.16c-3.83,2.71-9.75,6.63-11.98,4.93-.36-.28.34-1.3.74-1.61,5.66-3.52,9.85-8.19,12.84-14.17.65-1.3,2.2-2.2,3.38-2.13,1.6.09,3.49,1.38,2.84,3.4-.68,2.12-2.25,3.99-3.74,6.14h17.65c.87-1.06,2.03-2.38,2.93-2.53,1.68-.28,4.27,1.55,4.63,3.66.1.56-.55,1.5-1.14,2.18l-14.18.05-.47,8.99,12.56-.21c.84-1.14,2.08-2.57,3.08-2.67,2.36-.26,4.93,1.86,4.81,4.59-.04.82-1.59,1.77-2.65,1.77l-18.24-.06Z"/>
      <path d="M53.79,52.81c-.99,2.32-4.14,1.7-5.56.14-4-4.33-7.83-8.36-12.63-11.83l-.51-1.37c-1.17-3.12,22.05,5.26,18.71,13.06Z"/>
    </g>
  </g>
</svg>