<?xml version="1.0" encoding="UTF-8"?>
<svg id="_レイヤー_2" data-name="レイヤー 2" xmlns="http://www.w3.org/2000/svg" viewBox="0 0 232.4 73.5">
  <g id="_レイヤー_3" data-name="レイヤー 3">
    <g>
      <path d="M35.14,38.73C30.86,66.79-1.59,70.84.06,68.6l.88-1.19c6.83-1.88,12.46-5.6,17.44-10.52,6.33-6.13,10.25-13.85,11.32-22.43-6.32,0-12.1-.04-17.98.8-1.7.24-3.33.57-4.9.44-1.69-1.61-.66-5.74,1.53-5.68l21.79.58-.18-16.18-21.87.74c-1.35.05-3.35,1.19-4.57.23-1.6-1.26-.72-5.16,1.46-5.41,3.12-.36,6.24.34,9.5.34l42.1-.04c.95-1.77,2.33-3.43,4.29-3.21,3.34.38,5.8,4.51,4.7,6.25-.3.48-1.57,1.16-2.16,1.16l-26.78-.03-.56,16.07,17.27-.39c1.06-1.57,2.41-3.08,3.86-3.11,2.93-.06,5.8,2.84,5.37,5.58-.13.81-1.72,1.82-2.73,1.83l-23.14.08c6.55,16.05,19.49,26.33,35.62,31.25-3.16,2.86-6.65,4.26-10.4,5.43-10.16-4.61-18.14-12.41-22.78-22.42l-3.99-10.06Z"/>
      <path d="M144.6,29.69c3,3.02,3.48,6.98,1.19,8.12-.72.36-2.79.24-3.39-.31l-7.77-7.18c-12.89,2.2-25.71,4.21-38.83,5.42l-9.42.3c-1.84.06-3.09-1.88-3.1-3.34-.01-1.73,1.55-3.4,3.61-3.39l11.3.07c4.07-6.67,7.78-13.07,11.03-20.08-.1-1.22.05-3.08.77-3.86,1.51-1.63,5.6-2,7.25-.04.94,1.12.97,3.22.08,4.48l-13.64,19.27c9.52-.32,18.22-.86,27.58-2.03l-8.25-6.84-.66-1.15c-.2-.35,1.04-.81,1.63-.97,7.86,1.92,14.84,5.94,20.62,11.52Z"/>
      <path d="M181.39,67.96c3.2-.37,5.89,1.67,8.69-.37.98-.71,2.19-2.6,2.22-4.15l.4-20.39-20.91.14-10.54,1.29c-1.23-.54-1.64-2.19-1.14-3.52.43-1.15,1.7-1.95,3.28-1.94l59.13.28c.98-1.32,2.39-3.15,3.74-3.37,3.7-.62,7.46,4.85,5.68,6.34-.39.33-1.59.89-2.1.88l-31.06-.12-.13,22.19c-.02,2.97-1.43,5.71-3.68,7.4-5,2.11-10.93.41-13.58-4.65Z"/>
      <path d="M172.74,17.47l-1.87,10.29c-.11.61-1.31,1.52-1.85,1.6-.63.1-1.9-.85-2.01-1.53l-1.72-10.81c-.39-2.47.66-4.4,2.42-5.33,2.33-1.23,4.34.93,5.88,1.95l18.62.2c-.06-1.93-.17-4.42-.66-6.05-.98-1.24-2.16-2.19-1.33-3.97,1.49-3.2,5.34-4.74,7.19-3.26.54.43,1.29,1.84,1.23,2.57l-.89,10.74,19.8-.08c1.51-1.7,3.46-3.21,5.84-2.11,1.58.73,3.5,2.82,2.76,5.22l-3.19,10.49c-.18.61-1.1,1.31-1.51,1.57s-2.08-.24-2.13-.82l-.93-10.67h-45.66Z"/>
      <path d="M180.09,29.87c-1.59.02-3.99.87-5.04.45-1.42-.93-.26-4.34,1.27-4.35l32.64-.05c.56-1.62,1.94-3.02,3.31-2.83,2.3.32,3.96,2.18,4.37,4.49.14.79-1.37,1.94-2.33,1.95l-34.22.34Z"/>
      <path d="M226.36,63.79c-1.29,2.12-4.49,1.72-6.04.08-4.38-4.63-9.34-8.65-14.61-12.27-.24-.17-.67-.72-.78-.97-.14-.34.96-.84,1.44-1.04,6.39,1.19,12.52,3.21,17.6,7.13,2.03,1.73,4.01,4.4,2.39,7.07Z"/>
      <path d="M182.76,52.28c-4.05,7.68-13.17,13.52-17.33,9.08-.92-.98-1.25-2.68-.89-3.96.32-1.1,2.13-2.11,3.53-2.2,5.49-.37,9.97-1.8,14.39-5.6.4.55.62,2.08.3,2.68Z"/>
      <path d="M135.76,47.18c.21-3.01-.15-6.48-3.92-6.91-1.04-.12-2.44,1.2-3.16,2.39h-27.03c-.69-1.18-1.74-2.31-2.51-2.25-.72.06-2.06.63-2.63,1.04-2.15,1.55-2.71,3.66-1.32,5.93l-.33,23.09c0,.53.39,1.98.82,2.3.9.69,3.31.46,4.07-.29.97-.96,1.37-2.52,1.41-4.52l27.69-.03c.07,1.27.18,2.75.59,3.6.35.71,2.14.74,2.99.65,2.21-.24,3.39-1.6,3.4-4.04.03-7.21-.56-14.04-.07-20.96ZM101.11,64.05v-17.72s27.97-.06,27.97-.06l.1,17.73-28.07.04Z"/>
    </g>
  </g>
</svg>