<?xml version="1.0" encoding="UTF-8"?>
<svg id="_レイヤー_2" data-name="レイヤー 2" xmlns="http://www.w3.org/2000/svg" viewBox="0 0 1581.72 501.97">
  <g id="_レイヤー_3" data-name="レイヤー 3">
    <path d="M89.64,124.48c-4.33,23.22-8.34,47.13-12.83,70.08-1.03,5.29-6.33,9.18-10.11,11.05-4.54,2.25-14.19-1.45-15.03-6.34-4.23-24.77-8.76-55.47-11.93-78.66-2.46-18.02,3.52-28.31,16.22-35.02,15.82-8.36,27.69,4.42,39.2,12.91,42.08.6,84.12.75,126.2,1.21-.82-13.06-1.58-25.8-2.43-39.02-10.98-7.34-15.89-19.38-9.47-30.46,10.92-18.87,29.7-31.67,49-18.77,5.92,3.95,7.26,12.09,6.87,19.06-1.27,22.57-4.4,46.38-6.15,69.28,45.66-.4,91.39-.62,137.11-1.15,12.95-12.2,23.47-22.92,42.09-12.38,13.94,7.9,20.98,19.92,15.36,39.14-5.76,19.7-14.69,48.28-21.93,69.1-2.96,8.52-18.37,11.87-23.48,5.31-2.46-25.23-4.61-50.23-6.95-75.38-103.9.02-207.84-.01-311.74.03Z"/>
    <path d="M1321.89,133.51c-3.28,20.99-6.19,42.82-9.61,63.49-.88,5.31-3.78,9.56-7.35,12.48-3.57,2.92-14.48.38-15.28-4.85-3.74-24.59-7.49-52.71-10.25-76.68-1.26-10.93,4.69-18.36,11.7-23.06,8.98-6.02,18.75,2.88,28.19,3.16,24.92.74,50.24,1.53,75.25,2.24-1.1-15.39-2.1-30.58-3.31-46.1-6.79-4.12-14.99-13.78-11.31-21.69,7.1-15.22,20.89-23.96,37.07-24.05,13.69-.07,21.37,8.25,20.34,23.46-1.42,20.87-5.04,46.64-6.93,68.55,30.35-.22,60.89-.62,91.33-1.15,9.47-8.18,19.21-18.01,32.98-10.9,12.39,6.39,21.29,15.45,16.21,33.31-5.82,20.46-14.96,48.26-21.94,70.01-1.42,4.41-8.71,7.77-12.57,6.37s-7.75-6.13-8.12-10.58c-1.74-21.06-2.67-42.67-4.17-63.88-67.39-.07-134.83-.11-202.22-.12Z"/>
    <path d="M1334.17,442.92c-16.7,13.32-85.35,59.16-120.87,34.33-13.79-9.64,55.67-27.34,88.5-50.14,27.41-19.04,44.74-66.56,50.69-100.25-1.76-4.69-7.38-14.42-5.61-17.39,6.95-11.64,19.07-29.47,36.79-19.1,34.95,20.46-20.33,129.3-49.49,152.55Z"/>
    <path d="M1337.31,213.11c-5.47-2.8-5.73-16.3-1.21-20.89,7.79-7.91,10.88-7.81,23.71-7.81,31.7,0,67.45.41,100.21.39,5.26-4.45,13.29-11.48,20.19-10.48,14.1,2.06,23.1,14.07,20.33,27.98-.85,4.24-8.71,8.54-13.8,8.62-38.87.59-78.74.45-117.68,1.02-11.68.17-20.39,6.98-31.74,1.17Z"/>
    <path d="M935.75,380.49c-2.6-9.52-15.03-11.98-23.46-13.86-1.16-24.89-1.76-49.92-2.86-74.72,24.47,19.34,75.21,66.49,109.31,50.92,13.97-6.38,32.33-17.15,46.87-24.14-5.3-5.05-11.59-8.41-18.61-10.16-67.89-16.98-130.4-47.79-177.11-100.83,48.35-.19,98.19-.39,145.91-.6,7.76-.03,16.28-4.59,16.59-9.82,1.09-18.75-12.96-33.67-31.48-33.99-10.98-.19-19.38,11.43-25.31,19.67-54.09.56-108.08.86-162.15,1.34-.06-9.92-.23-19.88-.24-29.74,35.19-.26,71.42.18,106.25-.32,5.79-.08,13.09-2.18,14.8-7.36,4.75-14.38-8.63-27.39-23.81-29.07-5.98-.66-17.12,8.76-20.68,14.66-25.74.41-50.91.59-76.46.91.25-11.17.22-22.62.61-33.59,51.3-1.45,104.58-.42,155.28-2.63,15.56-.68,3.88-26.21-2.64-30.39-6.05-3.89-14.79-9.8-23.35-7.7-6.31,1.55-12.13,10.63-15.79,16.07-30.37.4-60.73.67-90.98.97,18.17-13.58,37.99-27.54,49.6-46.97,7.36-12.32-2.41-25.04-12.96-27.99-13.41-3.75-22.11,2-28.04,13.12-10.4,19.49-17.27,39.9-19.75,61.9-23.14.02-46.55,0-69.69-.07,9.93-18.43.13-42.01-9.74-58.75-7.12-12.08-17.3-15.57-31.01-10.67-8.16,2.92-16.57,15.2-11.76,24.65,9.78,19.22,26.77,31.59,43.19,44.74-33.46-.48-70.37-.85-102.84-1.36-13.04-.21-18.06-2.84-26.49,4.91-5.66,5.21-7.33,19.92-1.5,23.98,10.36,7.21,20.22-3.04,30.84-3.19,43.9-.61,87.75-.6,131.64-1.04.12,11.36.58,22.64.48,33.96-28.75-.5-61.32-1.06-88.95-1.55-12.75-.23-19.05-1.78-25.8,6.91-4.81,6.19-4.29,17.94,2.85,21.32,10.05,4.74,20.14-4.36,30.37-4.65,27.22-.78,54.46-.72,81.68-1.28-.46,10.15-.59,20.23-1.27,30.35-59.15-.57-120.93-1.1-179.25-1.66-14.83-.14-19.13-1.61-27.51,7.62-5.04,5.56-5.88,20.2.39,23.56,11.6,6.24,21.3-3.35,33.93-3.81,31.42-1.14,63.87-1.58,95.91-2.75-23.1,39.65-48.74,71.41-88.84,97.28-16.02,10.34-42.44,26.66-59.85,38.08-2.66,1.74-2.5,8.29.07,9.25,2.56.97,5.05.54,7.58,1.2,48.02-12.09,89.35-37.5,126.8-69.36-.48,55.61-.45,111.39-1.26,166.91-19.6,1.46-49.24-.18-66,2.14-16.77,2.32-17.87,11.43-15.09,22.63,2.18,8.78,11.75,14.79,17.84,15.62,8.35,1.15,15.46-.3,22.48-.67,7.79-.41,15.57-1,23.33-1.79,15.46-1.56,30.84-3.86,46.06-6.92,15.22-3.06,30.1-7.56,45.14-11.43s46.74-8.59,47.93-25.93c.34-5-7.07-3.92-10.82-3.49-24.19,2.78-50.08,5.81-74.75,8.66-.18-24.13-.18-48.29-.32-72.43,15.62.29,30.53.48,46.61.84,30.38,52.44,79.27,98.18,137.66,112.26,20.39,4.91,38.8,6.39,49.73,5.59,21.46-1.57,51.91-4.57,62.2-21.09,2.87-4.61-.14-10.65-5.55-11.15-56.89-5.25-107.44-5.25-158.44-36.69,20.61-4.58,91.13-14.54,82.43-46.44ZM713.68,258.64c.59-2.45,3.75-5.12,5.02-6.82,10.76-14.47,20.3-28.19,27.54-44.59,34.05.31,67.48-.07,101.83.55,6.13,12.23,24.61,37.54,27.88,46.72,3.27,9.19-6.76,9.14-11.36,9.68-15.7,1.85-36.02-.7-52.64.2.7-15.84,3.7-30.09-.16-46.12-1.47-6.11-16.56-7.64-22.15-4.45-6.29,3.6-13.74,10.2-12.87,18.55,1.08,10.34,4.26,21.58,5.74,32.08-19.66-.01-40.11.02-59.57-.09-2.96-.02-9.84-3.28-9.25-5.74ZM721.72,284.81c50.05,0,100.09,0,150.14,0,.68,8.26,1.35,16.52,2.03,24.78-50.86-.02-101.73-.02-152.59-.04.14-8.24.29-16.49.43-24.73ZM721.37,357.22c-.01-9-.03-18-.04-27,50.78.02,101.56.06,152.34.09.15,8.96.31,17.92.46,26.88-50.92,0-101.83.02-152.75.03ZM789.39,377.87c26.08-.1,51.51-.77,77.85-.63,3.55.02,9.09,5.48,11.61,8.09-15.27,10.41-30.76,20.63-46.11,30.96-16.1-11.23-30.33-23.67-43.36-38.43Z"/>
    <path d="M470.25,261.31c5.84-.59,11.68-1.25,17.51-1.97s9.26-6.04,8.02-11.5c-1.54-6.82-4.24-13.31-8.83-18.51-6.86-7.78-18.76-11.78-28.01-7.1-6.53,3.3-10.67,10.13-17.08,13.67-5.89,3.25-12.95,3.33-19.67,3.33-68.06.02-136.12.05-204.17.07,8.29-19.71,16.58-39.42,24.88-59.13,3.71-8.82,7.47-18.71,4.17-27.7-5.25-14.33-26.44-16.79-38.71-7.71s-17.16,25.06-19.37,40.16c-2.2,15.11-2.57,30.83-8.86,44.75-1.48,3.27-3.44,6.57-6.62,8.22-2.74,1.42-5.97,1.41-9.06,1.37-44.64-.62-89.27-1.25-133.91-1.87-9.64-.13-20.02-.07-27.08,7.72-3.8,4.2-4.7,10.48-1.57,15.21,3.72,5.61,11.21,5.94,17.7,5.83,48.07-.81,96.13-1.62,144.2-2.43-13.39,27.41-26.78,54.82-40.17,82.23-2.67,5.48-5.43,11.87-.31,17.33,1.98,2.11,4.66,3.43,7.5,3.97,14.44,2.74,30-3.17,39.25-14.5l54.83,30.03c-16.73,30.36-44.92,53.36-76.24,68.19-31.32,14.83-65.76,22.01-100.19,26-5.41.63-18.73,2.01-20.66,8.73-2.3,7.98,14.73,9.44,19.82,9.73,40.54,2.3,81.94-1.11,119.92-15.46,37.98-14.35,72.4-40.36,92.02-75.91,35.8,29.55,72.02,58.61,108.62,87.16,6.18,4.82,13.19,9.88,20.99,9.19,10.47-.93,17.42-12.57,16.66-23.06s-7.15-19.68-14.06-27.61c-28.36-32.56-67.97-52.75-106.54-72.16,25.88-34.65,46.67-73.09,61.52-113.7,41.15,2.45,82.49,1.59,123.5-2.56ZM247.22,359.89c-23.86-8.21-47.72-16.43-71.58-24.64,10.25-23.85,20.52-47.7,30.78-71.56,31.62.08,63.23.17,94.85.25-14.22,34.17-32.66,65.79-54.05,95.95Z"/>
    <path d="M1245.35,202.39c-9.48-7.4-26.94-19.07-37.24-27.03,19.91-27,40.84-54,60.76-80.83,4.57-6.15,2.05-17.39-.97-21.76-14.37-20.84-33.8-5.64-45.35-2.33-22.85,6.57-31.41,2.04-51.2,1.3-5.16-3.37-10.45-11.65-17.43-11.93-14.88-.61-27.51,10.29-31.42,25.79-1.77,7.02,4.61,15.11,9,26.08-.6,77.18-.85,201.15-1.77,267.34s-3.03,55.93-3.99,106.2c-.16,8.55,2.46,11.95,7.17,14.48,9.58,5.14,21.12.92,27.9-6.43,7.11-7.71,9.8-13.91,9.75-27.06-.16-44.06-1.44-91.57-1.6-136.47,30.46,15.63,65.49,17.34,89.46-9.68,31.92-35.97,24.08-88.68-13.08-117.67ZM1224.63,304.9c-13.14,17.69-36.29,14.88-55.87,13.93-.07-74.27.08-148.35.02-222.56,16.54.12,33.3.05,49.66.27-10.19,23.79-23.26,49.56-32.68,72.82-5.76,14.23.84,21.05,12,28.5,36.13,24.12,55.35,68.69,26.86,107.04Z"/>
    <path d="M1566.11,366.43c-4.06-3.66-10.54-.62-10.4,4.85l.86,33.5c.48,18.6-16.97,31.34-35.1,31.57-13.38.16-26.77.33-40.15.49-1.59.02-3.17.04-4.76.06-1.46.02-2.95.18-4.4-.09-2.02-.39-4.69-1.03-5.38-1.38-8.89-4.45-14.32-8.94-14.1-21,.79-42.12,2.63-85.81,3.71-128.28,32.69-.33,66.11.41,98.43-.19,6.49-.12,15.55-2.04,17.62-8.41,5.53-17.05-8.83-32.87-27.36-34.02-6.79-.42-16.69,10.33-19.73,17.48-68.9,0-138.92-.02-207.24-.12-9.92-.01-19.86-4.89-25.63-.05-10.63,8.92-7.93,21.28-2.4,30.85,24.71-1.53,54.85-4.93,77.89-6.02,23.04-1.09,36.03.72,57.37.29-14.58,10.93-6.99,16.82-6.71,30.65.77,38.42-.37,79.29.39,116.21.17,8.34,1.4,17.02,6.15,24.08,4.29,6.37,10.86,10.72,17.29,14.67,3.39,2.08,6.16,2.54,10.07,2.59l14.53.2c13.48.19,26.95.38,40.43.57,10.36.15,20.72.29,31.08.44,1.08.02,2.16.03,3.24.05,18.78.26,29.55-10.33,33.85-20.23,4.33-9.97,15.02-66.56-9.55-88.74Z"/>
  </g>
</svg>