<?xml version="1.0" encoding="UTF-8"?>
<svg id="_レイヤー_2" data-name="レイヤー 2" xmlns="http://www.w3.org/2000/svg" viewBox="0 0 142.22 199.5">
  <defs>
    <style>
      .cls-1 {
        fill: #3d3530;
      }

      .cls-2 {
        fill: #3d3530;
      }

      .cls-3 {
        fill: #3c3531;
      }

      .cls-4 {
        fill: #8e1a1a;
      }
    </style>
  </defs>
  <g id="_スウォッチ情報レイヤー" data-name="スウォッチ情報レイヤー">
    <g>
      <path class="cls-4" d="M142.04,57.28c-.55,25.77-14.84,48.16-35.83,60.12-10.35-5.92-22.33-20.28-35.1-20.28s-24.75,14.36-35.1,20.28C15.02,105.43.73,83.04.18,57.28c-.02-.76.73-1.29,1.45-1.06,45.32,14.57,91.52,15.31,138.96,0,.72-.23,1.47.31,1.45,1.06Z"/>
      <g>
        <path class="cls-1" d="M52.22,130.71c-1.27-.48-2.04-1.46-2.4-3.14-.31,1.63-1.28,2.57-3.43,3.18l-.11-.25c1.76-.77,2.43-1.74,2.62-3.3h-2v-.27h2.03c.03-.28.04-.58.04-.9v-1.1h-2.35v-.27h5.8v.27h-2.46v1.09c0,.33,0,.63-.04.92h2.27v.27h-2.24c.65,1.48,1.46,2.13,2.86,2.4l-.59,1.11Z"/>
        <path class="cls-1" d="M59.78,127.57c-.17-.38-.29-.65-.5-1.01-1.46.41-3,.7-4.59.96l-.23-1.1c.41,0,.78,0,1.13,0,.47-.68.93-1.76,1.07-2.44l1.28.34c-.47.74-1.14,1.44-1.94,2.1.98-.03,2.07-.08,3.09-.17-.19-.31-.45-.7-.68-.98l.17-.2c.78.5,1.58,1.14,2.26,1.76l-1.06.74ZM58.99,130.74v-.54h-2.84v.54h-.97v-2.97h4.77v2.98h-.97ZM58.99,128.06h-2.84v1.87h2.84v-1.87Z"/>
        <path class="cls-1" d="M62.26,129.85c.57-.49,1.04-1.07,1.42-1.85l.98.64c-.63.7-1.41,1.14-2.27,1.45l-.12-.24ZM67.68,126.01c.08-.26.11-.62.11-.88h-4.34v.95h-.91v-1.23h2.57v-.86h1.03v.86h2.7v.5c-.22.29-.59.6-.98.84l-.17-.18ZM66.26,127.62v2.09c0,.63-.2,1.03-.86,1.03-.31,0-.72-.09-1.25-.28v-.29c.35.09.59.14.75.14.32,0,.35-.2.35-.65v-2.05h-2.68v-.32h6.16v.32h-2.46ZM63.73,126.34v-.31h3.76v.31h-3.76ZM68.18,130.25c-.44-.77-.92-1.4-1.39-1.87l.14-.23c.74.28,1.44.63,2.01,1.06l-.77,1.04Z"/>
        <path class="cls-1" d="M74.56,130.29v.45h-.92v-6.31h5.92v.27h-5.01v5.32h5.31v.27h-5.31ZM78.74,129.81c-.4-.74-.81-1.29-1.23-1.7-.3.68-1.13,1.31-2.42,1.76l-.1-.23c1.01-.54,1.61-1.25,1.74-2.1h-1.79v-.27h1.82c0-.1.01-.2.01-.31v-.91h-.47c-.29.41-.66.76-1.12,1.09l-.17-.18c.41-.6.69-1.45.75-2.15l1.07.28c-.09.21-.23.51-.35.69h2.5v.27h-1.26v.91c0,.11,0,.21-.02.31h1.82v.27h-1.85c-.02.13-.05.26-.09.38.69.25,1.24.53,1.85.95l-.7.95Z"/>
        <path class="cls-1" d="M81.28,130.37v-.3h2.79v-2.62h-1.99v-.3h1.99v-2.24h-2.34v-.3h5.86v.3h-2.42v2.24h2.07v.3h-2.07v2.62h2.87v.31h-6.76Z"/>
        <path class="cls-1" d="M94.75,130.74v-.7h-4.05v.7h-.86v-5.17h.86v4.21h1.55v-5.71h.9v5.71h1.6v-4.21h.86v5.18h-.86Z"/>
      </g>
      <g>
        <path class="cls-2" d="M15.61,198.72c.1.23,0,.48-.23.58-.22.1-.48,0-.58-.23l-1.04-2.43h-4.08l-1.02,2.42c-.1.23-.35.32-.58.23-.23-.1-.34-.34-.24-.56l3.45-8.24c.14-.36.65-.36.8,0l3.5,8.24ZM13.41,195.77l-1.7-4.02-1.67,4.02h3.37Z"/>
        <path class="cls-2" d="M35.52,198.9c0,.43-.61.6-.84.23l-4.39-6.98v6.75c0,.24-.19.43-.43.43s-.43-.19-.43-.43v-8.25c0-.43.61-.61.84-.24l4.38,6.98v-6.74c0-.24.19-.44.43-.44s.44.2.44.44v8.25Z"/>
        <path class="cls-2" d="M52.9,195.32v3.73c0,.24-.2.44-.44.44s-.44-.2-.44-.44v-3.73l-2.78-4.1c-.13-.2-.08-.48.12-.61.2-.13.48-.08.61.12l2.49,3.68,2.49-3.68c.13-.2.41-.25.61-.12.2.13.25.41.12.61l-2.78,4.1Z"/>
        <path class="cls-2" d="M72.83,199.31c-2.21,0-3.74-2.09-3.74-4.55s1.57-4.53,3.74-4.53,3.74,1.92,3.74,4.53-1.64,4.55-3.74,4.55ZM72.83,191.1c-1.86,0-2.83,2.04-2.83,3.66s.97,3.66,2.83,3.66,2.82-2.04,2.82-3.66-.96-3.66-2.82-3.66Z"/>
        <path class="cls-2" d="M97.16,196.24c0,1.81-1.51,3.14-3.31,3.14s-3.32-1.33-3.32-3.14v-5.27c0-.25.2-.44.46-.44s.46.19.46.44v5.27c0,1.31,1.15,2.25,2.41,2.25s2.41-.95,2.41-2.25v-5.22c0-.25.2-.46.46-.46s.44.2.44.46v5.22Z"/>
        <path class="cls-2" d="M112.87,198.9c0,.25-.2.44-.46.44s-.46-.19-.46-.44v-8.25c0-.25.2-.44.46-.44s.46.19.46.44v8.25Z"/>
        <path class="cls-2" d="M133.8,198.9c0,.43-.61.6-.84.23l-4.39-6.98v6.75c0,.24-.19.43-.43.43s-.43-.19-.43-.43v-8.25c0-.43.61-.61.84-.24l4.38,6.98v-6.74c0-.24.19-.44.43-.44s.44.2.44.44v8.25Z"/>
      </g>
      <circle class="cls-4" cx="71.11" cy="27.32" r="27.32"/>
      <g>
        <path class="cls-3" d="M40.91,140.57v2.7c-1.55,1.97-3.47,4.44-6.41,6.77-.29.23-.7.25-1.02.04l-.35-.23c-.35-.22-.5-.66-.34-1.05.8-2.02,1.2-4.28,1.5-6.7H7.7v6.12c0,.49-.39.88-.88.88h-3.66c-.49,0-.88-.39-.88-.88v-7.65c0-.24.2-.44.44-.44h37.75c.24,0,.44.2.44.44Z"/>
        <path class="cls-3" d="M41.98,154.64v-1.2c0-.24-.2-.44-.44-.44h-22.84c1.01-2.2,1.98-4.39,2.83-6.63.09-.23-.03-.49-.26-.57l-4.94-1.82c-.24-.09-.49.04-.57.27-.91,2.81-2.03,5.8-3.36,8.74H.44c-.24,0-.44.2-.44.44v1.2c0,.24.2.44.44.44h10.94c-1.76,3.67-3.86,7.35-6.19,10.65-.13.19-.09.46.09.6l3.46,2.62c.2.15.48.11.62-.09.88-1.2,1.68-2.39,2.49-3.54,2.33.86,5.6,2.28,7.98,3.55-4.16,4.62-10.62,6.91-18.44,8.86-.25.06-.39.31-.31.56l.26.83c.06.19.28.33.47.3,10.31-1.23,17.79-3.56,22.45-7.91,3.64,2.2,7.5,4.82,11.24,7.77.23.18.53.12.66-.15l3.19-6.5c.11-.23.01-.5-.22-.6-3.96-1.7-7.87-3.2-11.52-4.38,2.29-3.34,4.01-7.5,5.6-12.57h8.33c.24,0,.44-.2.44-.44ZM22.16,165.92c-2.8-.81-6.72-1.72-9.33-2.18,1.82-2.89,3.41-5.73,4.85-8.67h9.05c-1.07,4.21-2.61,7.85-4.57,10.85Z"/>
        <path class="cls-3" d="M79.87,173.09c2.74-.33,5.84-1.21,8.57-2.37.31-.13.36-.56.08-.76l-4.68-3.3s-.47.76-.98,1.42v-8.97c1.71,1.19,3.93,2.43,6.05,3.17.22.08.46-.04.55-.25l2.35-5.62c.12-.28-.08-.59-.39-.61-4.37-.17-8.38-1.08-12.57-2.87h10.34c.24,0,.44-.2.44-.44v-.84c0-.24-.2-.44-.44-.44h-15.05v-3.24h12.16c.24,0,.44-.2.44-.44v-.74c0-.24-.2-.44-.44-.44h-12.16v-3.09h13.84c.24,0,.44-.2.44-.44v-.74c0-.24-.2-.44-.44-.44h-9.96c1.56-.87,3.65-2.15,5.69-3.81.28-.23.17-.67-.17-.76l-6.34-1.64c-.26-.07-.51.11-.54.37-.34,2.46-1.18,4.84-1.57,5.84h-10.22l3.73-2.33s-4.15-2.47-7.96-3.91c-.16-.06-.33-.02-.45.09l-.47.44c-.15.14-.18.37-.08.55,1.12,1.89,1.94,3.87,2.43,5.17h-7.4c-.24,0-.44.2-.44.44v.74c0,.24.2.44.44.44h13.42v3.09h-11.5c-.24,0-.44.2-.44.44v.74c0,.24.2.44.44.44h11.5v3.24h-14.63c-.24,0-.44.2-.44.44v.84c0,.24.2.44.44.44h6.98c-2.31,3.1-5.84,5.72-9.76,7.77-.2.11-.29.35-.2.56l.29.64c.09.2.31.31.52.25,2.51-.71,5.2-1.72,7.33-2.74v14.7c-1.69.05-3,.05-4.66.05-.27,0-.48.24-.43.51l.91,5.45c.04.26.3.42.55.35,6.11-1.6,11.53-3.65,17.44-6.31l-.19-1.27c-2.85.41-5.64.66-8.3.86v-4.92h7.18c4.36,7.83,10.31,10.65,17.43,11.9.2.04.4-.07.48-.26l2.19-5.06c.13-.3-.1-.62-.42-.61-.37.01-.73.01-1.07.01-3.87,0-7.18-.71-9.84-1.72ZM61.35,158.09c2.43-1.42,4.48-3.09,6.11-5.17h8.82c1.59,1.98,3.36,3.7,5.22,5.17h-7.65v-3.06c0-.24-.2-.44-.44-.44h-5.19c-.24,0-.44.2-.44.44v3.06h-6.44ZM77.53,159.91v2.53h-13.62v-2.53h13.62ZM63.91,167.01v-2.74h13.62v2.74h-13.62ZM72.64,168.83h9.52c-1.12,1.27-2.75,2.69-4.01,3.55-2.05-.96-3.92-2.18-5.5-3.55Z"/>
        <path class="cls-3" d="M130.9,141.16v-5.44c0-.24-.2-.44-.44-.44h-5.14c-.24,0-.44.2-.44.44v5.44h-9.33l.79-1.67v-1.38c0-.24-.2-.44-.44-.44h-13.35c-.24,0-.44.2-.44.44v42.3c0,.24.2.44.44.44h4.35c.24,0,.44-.2.44-.44v-10.46c1.49.66,2.85.96,4.01.96,2.61,0,4.29-1.57,4.76-4.1.09-.61.19-1.22.19-1.77,0-4.46-3.13-8.26-6.81-12.31l5.6-10.64v7.01c0,.24.2.44.44.44h4.44c.24,0,.44-.2.44-.44v-6.1h15.07c0,1.54-.38,3.99-.9,5.54-.05.15-.02.31.09.43l.62.71c.14.16.37.2.55.1,2.31-1.31,4.51-3.22,5.89-5.5v-2.65c0-.24-.2-.44-.44-.44h-10.38ZM108,152.77c2.15,5.12,3.08,7.96,3.08,10.59,0,1.12-.19,2.23-.51,3.45-.28.96-.7,1.47-1.63,1.47-.42,0-.93-.1-1.59-.3v-28.48h2.75l-2.1,13.28Z"/>
        <path class="cls-3" d="M133.75,179.83c-3.64,0-4.25-1.88-4.25-5.52v-14.49h-3.03c-.18,10.01-3.46,17.35-13.52,20.9-.21.08-.45-.03-.55-.23l-.33-.72c-.09-.19-.02-.42.15-.54,6.53-4.53,8.84-10.22,8.98-19.4h-5.39c-.24,0-.44-.2-.44-.44v-1c0-.24.2-.44.44-.44h24.78c.24,0,.44.2.44.44v1c0,.24-.2.44-.44.44h-6.23v13.68c0,1.06.19,1.22,1.07,1.22h2.05c1.35,0,2.14-1.23,3.03-6.47.05-.29.36-.45.62-.33l.84.39c.16.08.26.25.25.43-.53,9.66-1.93,11.1-5.16,11.1h-3.31Z"/>
        <rect class="cls-3" x="117.65" y="150.48" width="20.29" height="1.77" rx=".44" ry=".44"/>
        <circle class="cls-3" cx="23.04" cy="134.65" r="3.62"/>
      </g>
    </g>
  </g>
</svg>