<?xml version="1.0" encoding="UTF-8"?>
<svg id="_レイヤー_2" data-name="レイヤー 2" xmlns="http://www.w3.org/2000/svg" viewBox="0 0 697.71 484.98">
  <defs>
    <style>
      .cls-1 {
        fill: #68557c;
      }

      .cls-2 {
        fill: #ef9292;
      }

      .cls-3 {
        fill: #aca69d;
      }

      .cls-4, .cls-5, .cls-6 {
        fill: #c9c2b8;
      }

      .cls-5 {
        stroke-width: 14px;
      }

      .cls-5, .cls-6, .cls-7 {
        stroke: #fff;
        stroke-miterlimit: 10;
      }

      .cls-6 {
        stroke-width: 13.83px;
      }

      .cls-7 {
        fill: #c9b69b;
        stroke-width: 11.85px;
      }

      .cls-8 {
        fill: #4f7251;
      }

      .cls-9 {
        fill: #e5cf8f;
      }

      .cls-10 {
        fill: #f8eee7;
      }
    </style>
  </defs>
  <g id="_レイヤー_4" data-name="レイヤー 4">
    <g>
      <rect class="cls-4" x="96.07" y="178.25" width="516.37" height="306.73" rx="17.47" ry="17.47"/>
      <g>
        <rect class="cls-8" x="151.93" y="228.24" width="75.63" height="103.56" rx="17.47" ry="17.47"/>
        <rect class="cls-1" x="231.48" y="228.24" width="75.63" height="103.56" rx="17.47" ry="17.47"/>
        <rect class="cls-10" x="311.04" y="228.24" width="75.63" height="103.56" rx="17.47" ry="17.47"/>
        <rect class="cls-2" x="390.6" y="228.24" width="75.63" height="103.56" rx="17.47" ry="17.47"/>
        <rect class="cls-9" x="470.16" y="228.24" width="75.63" height="103.56" rx="17.47" ry="17.47"/>
      </g>
      <path class="cls-7" d="M682.23,39.99h0c-3.24,7.22-9.34,11.69-15.96,11.69H42.23c-6.62,0-12.73-4.47-15.96-11.69h0c-6.84-15.25,1.98-34.06,15.96-34.06h624.04c13.98,0,22.8,18.81,15.96,34.06Z"/>
      <rect class="cls-3" x="173.72" y="409.63" width="353.17" height="33.33" rx="6.12" ry="6.12"/>
      <rect class="cls-3" x="195.27" y="371.3" width="305.75" height="33.33" rx="6.12" ry="6.12"/>
      <path class="cls-5" d="M684.91,197.55c-13.07-14.22-24.63-31.5-35.39-50.41-4.35-7.64-13.03-12.46-22.53-12.46H63.88c-10.53,0-19.94,5.91-23.68,14.8-7.81,18.58-16.92,35.22-28.1,48.77-12.48,15.12-.65,36.6,20.23,36.6h632.96c21.33,0,33.25-22.48,19.63-37.3Z"/>
      <path class="cls-6" d="M657.11,89.85l-21.33,36.57c-3.44,5.91-8.94,9.4-14.79,9.4H87.51c-5.85,0-11.34-3.49-14.79-9.4l-21.33-36.57c-8.82-15.12-.18-36.35,14.79-36.35h576.14c14.97,0,23.6,21.24,14.79,36.35Z"/>
    </g>
  </g>
</svg>