<?xml version="1.0" encoding="UTF-8"?>
<svg id="_レイヤー_2" data-name="レイヤー 2" xmlns="http://www.w3.org/2000/svg" viewBox="0 0 1618 523.94">
  <g id="_レイヤー_3" data-name="レイヤー 3">
    <path d="M1432.49,354.18c-4.67-.37-9.35-.65-14.03-.89l-1.07,87.31c-.25,20.22-14.46,39.68-35.2,39.15l-51.93-1.34c24.1,37.57,66.6,45.61,102.45,33.77,17.65-9.28,28.54-27.95,28.24-48.9l-1.5-106.29c-8.96-1.15-17.95-2.1-26.96-2.81Z"/>
    <path d="M1609.83,192.56c-8.85-9.18-21.2-15.21-34.01-12.83-7.95,1.48-17.12,11.44-23.27,23.12l-174.99,1.5,1.63-61.77,121.77-.25c6.6-.01,17.55-5.8,19.85-10.88,2.3-5.08-.57-18.21-4.37-22.45-8.49-9.48-19.2-15.92-30.84-14.97-7.75.63-18.57,10.89-25.48,18.36l-80.29,2.17,4.39-73.6c.54-9.09-4.68-22.19-11.57-24.05-18.17-4.9-36.83,5.82-43.56,22.74-2.81,7.06,6.86,18.23,8.39,24.72,3.57,15.19,3.25,32.22,3.19,51l-111.58-3.96c-6.29-.22-14.7,10.53-16.09,16.35-1.56,6.55,1.33,18.91,6.65,23.5l33.41-6.61,88.29-2.18.55,62.06-205.73-3.21c-12.86,1.87-18.17,30.53-6.46,35.8,10.74,4.83,25.23-3.37,36.27-3.49l250.36-2.78c-2.43,10.98-.75,16.71-.26,26.55l2.06,41.59-223.46-2.95c-10.04-.13-19.47.25-24.98,6.91-4.38,5.29-4.29,21.51,1.3,25.03,10.76,6.78,24.26-1.43,34.63-1.59l213.21-3.12-.36,29.03c11.58.58,23.14,1.57,34.65,2.92,2.11.25,4.21.52,6.32.79l-.44-31.06,115.26-.97c5.21-.04,11.49-12.78,10.37-17.39-4.65-19.26-22.53-30.25-39.42-28.58-7.91.78-17.94,11.83-24.73,18.86l-62.39,2,3.16-66.84,133.16-.12c8.43,0,21.17-7.02,22.94-13.45,2.17-7.89-1.54-19.66-7.55-25.89Z"/>
    <path d="M624.24,494.25l7.95-224.02c-33.51,25.26-77.4,61.16-107.04,45.56,65.25-45.6,126.09-100.09,160.34-170.57l-92.03.93-37.76,8.01c-5.51-.04-9.79-15.22-8.36-20.55,1.43-5.33,8.66-15.41,14.44-15.2l73.62,2.67-1.33-48.01-11.33-13.5c-2.24-20.33,12.15-37.3,33.56-40.37,8.39-1.2,20.63,9.11,20.05,18.41l-5.07,81.4c13.62,3.28,25.39-.67,37.27-7.57,11.14-6.47,26.72-.03,31.58,8.81,8.39,15.28-1.75,21.64-10.31,33.07l-60.98,81.41c-1.69,6.94-2.42,19.35-2.42,28.41l73.26,57.02c2.58,9.15-9.54,19.67-17.65,21.99-12.04,3.45-21.76-1.07-30.59-9.93l-24.83-24.93,5.24,170.85c.28,9.06-4.22,21.35-9.4,26.45-7.05,6.95-20.21,10.87-30.18,8.42-4.19-1.03-8.26-12.2-8.03-18.79Z"/>
    <path d="M43.15,403.28c-13.23.15-25.54,9.72-37.95,1.99-6.42-4-6.36-18.3-2.71-24.97,4.19-7.65,14.1-12.5,23.86-12.16l131.65,4.71,271.02-1.11c5.82-11.17,14.84-22.84,25.88-23.25,25.83-.95,49.83,32.64,38.65,45.34-2.75,3.12-11.35,8.04-15.52,8l-187.41-1.43-247.46,2.87Z"/>
    <path d="M753.89,103.49c-11.32,1.41-12.88-17.33-8.93-23.75,5.56-9.02,13.64-11.99,25.42-11.14l41.99,3.04,164.7-.23c7.06-9.52,15.95-17.19,24.78-18.08,16.13-1.64,35.55,15.55,33.8,34.34-.48,5.15-11.31,10.34-18.18,10.3l-208.72-1.31-54.87,6.82Z"/>
    <path d="M350.11,433.55c47.85,18.51,101.45,58.99,71.84,84.25-11.47,9.79-26.96,7.19-38.9-3.03l-114.99-98.4c31.13-8.18,56.35,7.24,82.05,17.18Z"/>
    <path d="M126.44,491.59c-37.85,21.41-90.5,17.05-93.52-7.82-.97-7.95,5.56-20.85,14.29-22.19l36.22-5.55c36.11-5.53,68.49-12.93,99.96-33.05,13.31,15.47-30.97,53.92-56.94,68.61Z"/>
    <path d="M1226.92,436.07c-17.7,2.28-33.74-6-38.1-20.73-1.54-5.21-.27-17.2,2.85-20.86,3.56-4.19,13.05-7.6,20.3-9.31,36.29,3.84,69.26-6.19,97.02-28.52l9.25-2.34c2.1-.53,3.33,7.23,3.8,10.7-17.28,37.99-52.01,65.92-95.12,71.07Z"/>
    <path d="M437.55,78.68c-4.9-13.37-18.97-28.2-36.08-27.38-7.81.38-17.48,11.24-22.91,19.11l-119.89,1.14,4.58-51.71c.44-4.96-2.12-14.58-5.5-17.01-15.77-11.38-50.17,14.25-45.57,29.02,4.56,14.62,9.94,26.03,6.4,39.81l-136.61-1.94c-8.06-.12-23.36-3.44-30.01-.7-11.34,4.67-15.36,26.28-7.06,32.57,8.23,6.23,23.88-3.23,31.88-3.39l143.28-2.84.28,38.73-60.15-.43c-4.29-5.8-9.59-12.57-14.24-13.15-11.58-1.43-23.97,7.96-32.11,20.58-2.46,3.81,4.31,15.07,6.06,19.83l-3.97,195.54c16.84,10.9,33.37-.75,41.67-17.6l157.58-.76c3.58,1.77,7.94,13.45,11.35,15.95,12.38,9.11,41.88-4.2,41.4-20.72l-4.3-146.64c-1.06-36.31,17.18-46.05-10.46-61.59-15.18-8.53-26.67-4.92-36.97,8.44l-60.66.42,2.18-38.5,165.12,1.62,11.97-4.53c2.75-1.04,3.81-10.95,2.73-13.88ZM158.04,314.74l-.43-35.95,163.4-.04.31,35.96-163.28.03ZM321.63,255.73l-163.67.02-.3-37.92,164.02.02-.04,37.88ZM319.86,156.4l2.05,37.89-164.29.1.38-38h161.86Z"/>
    <path d="M1015.13,310c-.12-13.93,3.16-25.47-9.98-33.39-9.13-5.5-21.88,1.82-30.76,8.02l-158.86,1.38c-10.18.09-15.85-2.84-24.91-9.47-6.79-4.97-22.8,2.97-27.82,8.99-8.5,9.76-7.03,20.77-.59,33.14l-2.23,180.65c7.05,7.14,20.73,5.96,29.4-.08,6.33-4.41,8.01-15.89,7.99-28.93l177.32-.04,4.2,24.3c11.6,7.7,37.9,1.86,37.78-12.29l-1.54-172.28ZM867.32,448.81l-71.03.52-.3-65.1,71.93-.26-.6,64.84ZM795.62,364.25l.4-57.44,70.52-.34,1.67,57.57-72.58.21ZM902.9,449.06l-.38-64.99,73.92-.02.22,65.02h-73.77ZM902.47,364.17l1.59-57.64,71.34.19,1.65,57.36-74.58.09Z"/>
    <path d="M984.76,161.19c-.1-13.86.46-22.86-9.7-30.29-12.53-9.15-20.75,6.76-31.18,6.93l-113.03,1.92c-4.92-3.07-12.62-10.72-17.58-10.89-4.33-.15-13.32,3.84-17.65,6.74-13,8.7-7.43,21.97-7.09,35.62l1.93,77.61c13.58,10.66,29.21-1.76,36.94-14.1l115.42-.38,6.75,14.97c1.33,2.94,10.21,2.31,14.93,1.72,13.4-1.67,20.87-10.94,20.78-22.51l-.51-67.34ZM825.81,212.83l-.24-51.75,119.93-.07.61,51.68-120.3.14Z"/>
  </g>
</svg>