<?xml version="1.0" encoding="UTF-8"?>
<svg id="_レイヤー_2" data-name="レイヤー 2" xmlns="http://www.w3.org/2000/svg" viewBox="0 0 160.8 133.02">
  <defs>
    <style>
      .cls-1 {
        fill: #ecd6d6;
      }
    </style>
  </defs>
  <g id="_レイヤー_4" data-name="レイヤー 4">
    <path class="cls-1" d="M107.28,123.29c-11.69,4.7-22.94,8.81-35.23,9.29l-11.41.44-31.48-2.5-24.02-7.63L0,116.13c0-6.97,2.36-13.02,4.46-19.51l2.02-6.25c5.96-8.85,10.21-18.4,15.14-27.55,2.76-5.11,6.63-8.46,10.23-12.39,3.38-3.69,6.21-7.25,9.95-10.7l16.95-15.63,5.93-4.45,21.87-12c5.57-3.06,10.6-6.84,17.19-7.6,8.76-1.02,8.23,8.27,9.8,11.01,8.08,14.21-3.13,20.16-1.47,26.02,1.23,4.35-1.64,5.49-3.56,7.89-2.46,3.13-1.43,7.85-2.69,11.64,9.61.28,19.78,3.25,28.88,4.93l7.72,1.43c5.6,1.03,12.28,2.52,15.7,7.93l2.69,9.28c-5.01,11.99-13.86,21.85-25.7,27.3-8.18,6.93-16.85,12.78-27.82,15.78Z"/>
  </g>
</svg>