<?xml version="1.0" encoding="UTF-8"?>
<svg id="_レイヤー_2" data-name="レイヤー 2" xmlns="http://www.w3.org/2000/svg" viewBox="0 0 147.5 128.01">
  <defs>
    <style>
      .cls-1 {
        fill: #ecd6d6;
      }
    </style>
  </defs>
  <g id="_レイヤー_4" data-name="レイヤー 4">
    <path class="cls-1" d="M140.92,27.54c-7.07,3.62-14.8,1.61-22.9,12.81l-14.61,20.2c-5.02,6.95-7.19,15.03-8.39,23.37-2.17,2-1.18,4.3-1.5,6.6-2.24,16.04-14.1,30.98-29.62,34.58-14.14,3.29-28.8,3.56-43.18,1.92-3.81-.44-6.93-2.71-10.98-2.09-3.35.51-5.67-1.65-7.16-3.83-5.57-8.15,7.26-16.3,11.97-21.4l8.36-9.05-10.23-7.85-9.17-9.03c-2.96-2.91-3.13-5.23-3.45-8.75-1.02-11.36,10.51-7.58,19.29-18.87l12.47-16.03c4.84-6.22,10.38-12.92,17.49-15.79l16.48-6.65,13.01-4.14c6.23-1.98,13.09-.76,19.37-1.73l10.85-1.68c5.15-.8,9.7,2.4,14.58,3.69,12.1,3.2,26.27,12.03,23.55,20.03-.96,2.83-4.17,2.63-6.25,3.7Z"/>
  </g>
</svg>