<?xml version="1.0" encoding="UTF-8"?>
<svg id="_レイヤー_2" data-name="レイヤー 2" xmlns="http://www.w3.org/2000/svg" viewBox="0 0 168.33 185.56">
  <defs>
    <style>
      .cls-1 {
        fill: #ecbebe;
      }
    </style>
  </defs>
  <g id="_レイヤー_4" data-name="レイヤー 4">
    <path class="cls-1" d="M52.17,182.1c-2.6-3.51-1.42-8.18.05-11.91l11.02-27.95c1.73-4.39,3.42-8.72,4.03-13.98-5.87-2.58-12.03-2.91-18.27-3.62-7.76-.88-20.32-8.8-28.84-12.87-2.87-1.37-10.72-2.4-15.64-7.52-2.87-2.99-5.27-4.8-4.3-9.17.78-3.51,3.01-6.63,7.55-7.43,16.46-2.89,31.62-8.58,47-15.71l14.1-7.74c8.17-4.49,15.16-9.3,21.41-16.13l20.16-22.02,6.64-8.6C121.77,11.38,126.94.52,130.98.08c8.3-.91,12.55,6.51,14.8,7.76,10.3,5.74,11.13,11.09,14.2,21.02l3.63,11.75c3.85,12.47,5.4,24.66,4.42,37.8-.46,6.17-.81,12.59-2.96,18.62l-2.79,7.82-14.36,25.26c-3.28,5.77-6.77,10.6-12.51,14.45l-3.28,4.91-17.89,15.98-13.72,10.37c-7.72,5.84-16.27,7.88-25.59,8.5-4.3.29-7.4,2.02-12.22.82-3.05-.76-7.81.68-10.56-3.04Z"/>
  </g>
</svg>