<?xml version="1.0" encoding="UTF-8"?>
<svg id="_レイヤー_2" data-name="レイヤー 2" xmlns="http://www.w3.org/2000/svg" viewBox="0 0 2321.65 571.17">
  <defs>
    <style>
      .cls-1 {
        fill: #68557c;
      }

      .cls-2 {
        fill: #ecd6d6;
      }

      .cls-3 {
        fill: #ef9292;
      }

      .cls-4 {
        fill: #ecbdbd;
      }

      .cls-5 {
        fill: #9c6565;
      }

      .cls-6 {
        fill: #4bbf50;
      }

      .cls-7 {
        fill: #aca69d;
      }

      .cls-8 {
        fill: #fff;
      }

      .cls-9 {
        fill: #c9b69b;
        stroke-width: 11.85px;
      }

      .cls-9, .cls-10 {
        stroke: #fff;
        stroke-miterlimit: 10;
      }

      .cls-11 {
        fill: #4f7251;
      }

      .cls-12 {
        fill: #e5cf8f;
      }

      .cls-13 {
        fill: #ecbebe;
      }

      .cls-14 {
        fill: #f8eee7;
      }

      .cls-10 {
        fill: #efcfb2;
        stroke-width: 13px;
      }
    </style>
  </defs>
  <g id="_レイヤー_4" data-name="レイヤー 4">
    <g>
      <rect class="cls-10" x="95.57" y="256.32" width="516.37" height="306.73" rx="17.47" ry="17.47"/>
      <g>
        <rect class="cls-11" x="151.43" y="306.32" width="75.63" height="103.56" rx="17.47" ry="17.47"/>
        <rect class="cls-1" x="230.98" y="306.32" width="75.63" height="103.56" rx="17.47" ry="17.47"/>
        <rect class="cls-14" x="310.54" y="306.32" width="75.63" height="103.56" rx="17.47" ry="17.47"/>
        <rect class="cls-3" x="390.1" y="306.32" width="75.63" height="103.56" rx="17.47" ry="17.47"/>
        <rect class="cls-12" x="469.66" y="306.32" width="75.63" height="103.56" rx="17.47" ry="17.47"/>
      </g>
      <path class="cls-9" d="M681.73,118.07h0c-3.24,7.22-9.34,11.69-15.96,11.69H41.73c-6.62,0-12.73-4.47-15.96-11.69h0c-6.84-15.25,1.98-34.06,15.96-34.06h624.04c13.98,0,22.8,18.81,15.96,34.06Z"/>
      <rect class="cls-7" x="173.22" y="487.7" width="353.17" height="33.33" rx="6.12" ry="6.12"/>
      <rect class="cls-7" x="194.77" y="449.38" width="305.75" height="33.33" rx="6.12" ry="6.12"/>
      <path class="cls-10" d="M684.41,275.63c-13.07-14.22-24.63-31.5-35.39-50.41-4.35-7.64-13.03-12.46-22.53-12.46H63.38c-10.53,0-19.94,5.91-23.68,14.8-7.81,18.58-16.92,35.22-28.1,48.77-12.48,15.12-.65,36.6,20.23,36.6h632.96c21.33,0,33.25-22.48,19.63-37.3Z"/>
      <path class="cls-10" d="M656.61,167.93l-21.33,36.57c-3.44,5.91-8.94,9.4-14.79,9.4H87.01c-5.85,0-11.34-3.49-14.79-9.4l-21.33-36.57c-8.82-15.12-.18-36.35,14.79-36.35h576.14c14.97,0,23.6,21.24,14.79,36.35Z"/>
    </g>
    <g>
      <path class="cls-5" d="M1257.93,153.37l-77.2,82.06-17.02-61.39h-317.29c-24.92,45.59-75.98,80.23-117.31,80.84,20.67-31.61,45.59-86.31,54.71-139.8l75.98,24.92c-1.21,4.86-2.43,9.12-4.25,13.37h114.88l1.22-77.19h56.53v77.19h229.76ZM1124.81,378.87c-20.06,44.98-47.41,83.88-80.23,113.06l88.74,27.35-7.29,18.23-99.68-31c-34.65,25.53-73.55,39.51-116.1,39.51-9.12,0-18.23-.61-27.96-1.82,28.57-17.02,54.71-36.47,78.41-57.74l-133.12-41.33,58.35-108.8h-103.33v-20.06h113.67l60.78-113.06,57.14,27.35-46.2,85.7h230.37v20.06h-240.7l-58.96,110.02,78.41,24.31c35.86-35.25,65.65-75.98,93-122.78l54.71,31Z"/>
      <path class="cls-5" d="M1642.08,211.72h-120.96v39.51h219.43v22.49h-119.74c38.9,29.78,100.29,67.47,139.19,85.1-10.33,6.69-24.92,9.73-41.33,9.73-32.82,0-74.76-12.16-110.63-31.61v116.1h-186.6v43.16l34.04,18.84-84.49,32.22.61-201.8c-35.86,31.61-81.45,46.8-117.92,46.8-13.98,0-26.74-2.43-37.08-6.69,42.55-18.23,97.25-63.82,138.59-111.84h-99.08v-22.49h207.27v-39.51h-114.88v-22.49h115.49l.61-34.04h-152.57v-21.88h367.13v21.88h-158.04v34.04h120.96v22.49ZM1366.73,64.01l59.57-6.08c3.04,28.57,8.51,41.94,17.63,67.47-43.76-1.22-71.72-22.49-77.19-61.39ZM1411.11,296.81c-3.65,6.69-7.29,12.76-11.55,18.24h68.08v-28.57h49.23v28.57h57.14c-2.43-1.82-4.86-3.65-7.29-6.08l28.57-35.25h-223.68l39.51,23.1ZM1504.71,403.79h-83.27v29.18h137.37v-97.86h-137.37v49.23h83.27v19.45ZM1615.95,542.99c-33.43,0-75.37-10.94-108.8-41.33l38.29-38.29c16.41,13.37,32.82,23.71,49.23,32.82,13.98-16.41,29.18-40.12,37.08-52.88l42.55,27.35c-14.59,18.23-35.25,31.61-57.14,36.47,16.41,7.9,32.82,14.59,51.06,21.88-8.51,8.51-27.96,13.98-52.27,13.98ZM1629.93,85.29c-21.88,26.74-47.41,40.12-91.78,40.12-4.86,0-9.73-.61-14.59-.61,25.53-26.74,35.86-45.59,51.67-71.12l54.71,31.61Z"/>
      <path class="cls-5" d="M1970.93,128.45v13.37c0,66.25-21.27,127.04-46.8,153.78,17.63,29.18,34.04,90.57,34.04,139.8,0,4.25-.61,8.51-.61,12.16l-81.45-20.67,27.35-23.1c-1.22-31.61-17.02-86.92-27.96-106.98,19.45-35.25,35.86-93,36.47-147.7h-64.43l-.61,375.64h-54.71V128.45h178.7ZM2131.4,451.21c-37.08,48.02-79.63,71.72-137.37,71.72-12.16,0-25.53-1.22-38.9-3.04,45.59-21.88,86.92-58.35,124-110.02l52.27,41.33ZM2321.65,159.44l-65.04,75.37-17.02-55.31h-170.8c-20.06,40.73-54.1,65.65-91.17,68.08,12.76-23.71,30.39-79.02,38.9-121.57l65.04,17.02c-1.22,6.08-3.04,11.55-4.86,16.41h48.63l.61-83.27h57.14v83.27h138.59ZM2300.37,381.3h-303.31v-20.67h303.31v20.67ZM2245.06,285.87h-196.33v-20.67h196.33v20.67ZM2309.49,540.56h-150.13v-142.23h55.92v122.17h38.9l25.53-22.49,29.78,42.55Z"/>
    </g>
    <path class="cls-4" d="M2120.72,466.97c.4,2.91,2.52,5.74,3.34,7.86l5.49-2.83c3.2-1.65,5.91-3.75,9.18-5.39l18.03-9.09,6.94-5.61c2.36-1.91,7.82-3.71,11.1-2.48,4.17,1.56,5.54,7.76,3.71,11.24,2.33,3.84.46,7.22.39,10.77-.07,3.15.27,5.67-.18,8.83-1.36,9.57-2.04,19.52-6.46,28.36-1.59,3.19-2.94,5.71-4.1,9.08s-3.71,6.46-5.32,9.7c-1.95,3.93-5.44,7.11-8.49,10.19l-8.17,8.26-8.52,7.76c-3.11,2.83-5.46,5.23-9.7,6.67-1.66.56-4.57,1.09-6.04,1.85-3.12,1.62-6.23,1.24-9.3,2.34-7.19,2.56-13.99,4.47-21.62,5.5-4.09.55-7.53,1.83-11.85.85-5.24-1.2-7.82-4.03-9.44-9.34-2.33-7.66-4.14-9.14-3.43-20.02.09-1.38-2.09-3.62-.69-5.62-1.05-2.79-.97-5.34.3-8.03-1.15-3.42-.84-7.3.54-10.65s.89-6.56,1.39-10.1l2.14-15.17c1.11-7.89,4.09-15.14,6.74-22.52,1.81-5.03,3.64-9.74,7.49-13.64,1.67-5.39,4.05-10.26,7.1-15,.7-1.09,2.43-1.55,3.22-2.09,3.12-2.16,5.27-.56,7.87.46,2.74,1.08,4.38,1.48,5.99,4.3l6.3,11.02,2.9,6.18c1.03,2.19,2.74,3.14,3.17,6.36Z"/>
    <path class="cls-13" d="M1002.31,233.6c-3.02-4.08-1.66-9.51.06-13.85l12.81-32.49c2.01-5.11,3.98-10.14,4.69-16.26-6.83-3-13.98-3.39-21.23-4.21-9.03-1.03-23.62-10.23-33.53-14.96-3.34-1.59-12.47-2.79-18.19-8.74-3.34-3.47-6.13-5.58-5-10.66.91-4.08,3.49-7.71,8.78-8.64,19.14-3.36,36.76-9.98,54.64-18.26l16.39-9c9.5-5.22,17.62-10.81,24.89-18.75l23.44-25.6,7.72-10c5.45-7.07,11.47-19.69,16.17-20.2,9.65-1.06,14.6,7.57,17.21,9.03,11.97,6.67,12.94,12.89,16.51,24.44l4.22,13.67c4.48,14.49,6.27,28.67,5.14,43.95-.53,7.17-.94,14.64-3.44,21.65l-3.25,9.09-16.69,29.36c-3.82,6.71-7.88,12.33-14.54,16.8l-3.81,5.7-20.79,18.57-15.96,12.06c-8.98,6.79-18.91,9.16-29.75,9.89-5,.33-8.6,2.34-14.21.95-3.55-.88-9.08.79-12.28-3.54Z"/>
    <g>
      <path class="cls-6" d="M466.33,38.56c-52.48-10.48-101.67-9.51-141.09.31,13.02-16.27,10.73-23.6,13.14-34.92,2.65-12.44-60.59,6.85-70.76,24.7,1.87-6.06-10.37-25.57-19.41-25.33-7.37.2-25.68,23.54-24.38,34.7-33.43-17.57-67.11-17.81-19.89,28.6l-63.15,8.54c-6.22,4.83-3.18,9.55,3.65,14.21l68.19-8.09-6.83,30.66c-1.18,5.28,1.75,10.8,6.94,12.34,1.49.44,13.86-6.29,15.36-6.87l16.68-10.52c1.99,13.47,43.85,42.15,48.85,31.54,4.45-9.45,4.7-20.7-1.04-34.51,21.55,16.66,102.99,37.67,93.84,22.7-11.73-19.19-18.06-25.22-42.67-37.44,41.34-2.03,87.17-14.89,126.29-26.55,15.88-4.73,13.45-20.65-3.71-24.08Z"/>
      <g>
        <path class="cls-8" d="M245.1,70.51c24.23-6.07,50.2-9.65,76.63-10.55"/>
        <path class="cls-8" d="M246.24,74.67c24.75-6.13,50.02-9.46,75.49-10.4,5.54-.2,5.57-8.85,0-8.64-26.21.96-52.31,4.4-77.78,10.7-5.4,1.34-3.11,9.67,2.3,8.33h0Z"/>
      </g>
      <g>
        <path class="cls-8" d="M281.52,59.38c-.02-3.98,3.17-7.79,8.16-9.74"/>
        <path class="cls-8" d="M284.66,59.38c.09-3.23,3.09-5.57,5.85-6.71,1.57-.65,2.68-2.09,2.2-3.87-.41-1.48-2.29-2.85-3.87-2.2-5.46,2.26-10.29,6.46-10.46,12.78-.11,4.05,6.18,4.04,6.29,0h0Z"/>
      </g>
      <g>
        <path class="cls-8" d="M265.84,67.17c8.88.66,17.61,2.78,25.23,6.12"/>
        <path class="cls-8" d="M265.84,70.32c8.13.69,16.12,2.5,23.64,5.7,3.68,1.56,6.89-3.85,3.17-5.43-8.61-3.66-17.51-5.76-26.82-6.55-4.03-.34-4.01,5.95,0,6.29h0Z"/>
      </g>
    </g>
    <g>
      <path class="cls-6" d="M285.45,183.71c-41.38-19.35-82.35-28.55-117.03-28.41,14.1-10.84,13.69-17.38,17.99-26.28,4.73-9.78-51.62-6.64-63.68,6.1,2.78-4.64-3.4-23.31-10.95-24.94-6.15-1.33-26.07,14.3-27.26,23.81-24.15-21.36-52.01-28.4-22.3,19.67l-54.09-5.75c-6.14,2.74-4.57,7.27.14,12.52l58.18,7.15-11.89,24.03c-2.05,4.14-.74,9.31,3.24,11.64,1.15.67,12.77-2.4,14.13-2.58l15.97-5.33c-1.09,11.57,27.78,43.85,34.08,36.07,5.61-6.93,8.1-16.21,6.15-28.82,14.48,18.19,77.72,52.15,73.18,37.89-5.83-18.29-9.85-24.58-27.77-39.71,34.68,6.72,75.29,5.37,110.09,3.65,14.13-.7,15.35-14.39,1.82-20.72Z"/>
      <g>
        <path class="cls-8" d="M95.55,165.23c21.32-.11,43.58,2.2,65.67,6.83"/>
        <path class="cls-8" d="M95.55,168.92c21.76-.04,43.39,2.3,64.69,6.7,4.63.96,6.61-6.15,1.96-7.11-21.94-4.52-44.25-7-66.65-6.96-4.75,0-4.75,7.39,0,7.38h0Z"/>
      </g>
      <g>
        <path class="cls-8" d="M128.01,163.4c.79-3.3,4.21-5.81,8.74-6.42"/>
        <path class="cls-8" d="M130.59,164.12c.82-3.01,4.09-4.12,6.87-4.55,1.43-.22,2.23-2.02,1.87-3.3-.43-1.53-1.86-2.09-3.3-1.87-4.7.72-9.3,3.49-10.62,8.29-.91,3.33,4.26,4.76,5.17,1.43h0Z"/>
      </g>
      <g>
        <path class="cls-8" d="M113.42,166.68c7.23,2.35,14.04,5.88,19.67,10.2"/>
        <path class="cls-8" d="M112.71,169.27c6.87,2.31,13.23,5.59,19.03,9.93,2.76,2.07,5.44-2.58,2.71-4.63-6.16-4.62-13.02-8.03-20.31-10.47-3.28-1.1-4.69,4.08-1.43,5.17h0Z"/>
      </g>
    </g>
    <path class="cls-2" d="M1609.51,191.92c-11.69,4.7-22.94,8.81-35.23,9.29l-11.41.44-31.48-2.5-24.02-7.63-5.14-6.75c0-6.97,2.36-13.02,4.46-19.51l2.02-6.25c5.96-8.85,10.21-18.4,15.14-27.55,2.76-5.11,6.63-8.46,10.23-12.39,3.38-3.69,6.21-7.25,9.95-10.7l16.95-15.63,5.93-4.45,21.87-12c5.57-3.06,10.6-6.84,17.19-7.6,8.76-1.02,8.23,8.27,9.8,11.01,8.08,14.21-3.13,20.16-1.47,26.02,1.23,4.35-1.64,5.49-3.56,7.89-2.46,3.13-1.43,7.85-2.69,11.64,9.61.28,19.78,3.25,28.88,4.93l7.72,1.43c5.6,1.03,12.28,2.52,15.7,7.93l2.69,9.28c-5.01,11.99-13.86,21.85-25.7,27.3-8.18,6.93-16.85,12.78-27.82,15.78Z"/>
  </g>
</svg>