<?xml version="1.0" encoding="UTF-8"?>
<svg id="_レイヤー_2" data-name="レイヤー 2" xmlns="http://www.w3.org/2000/svg" viewBox="0 0 114.82 133.6">
  <defs>
    <style>
      .cls-1 {
        fill: #ecbdbd;
      }
    </style>
  </defs>
  <g id="_レイヤー_4" data-name="レイヤー 4">
    <path class="cls-1" d="M55.86,29.4c.4,2.91,2.52,5.74,3.34,7.86l5.49-2.83c3.2-1.65,5.91-3.75,9.18-5.39l18.03-9.09,6.94-5.61c2.36-1.91,7.82-3.71,11.1-2.48,4.17,1.56,5.54,7.76,3.71,11.24,2.33,3.84.46,7.22.39,10.77-.07,3.15.27,5.67-.18,8.83-1.36,9.57-2.04,19.52-6.46,28.36-1.59,3.19-2.94,5.71-4.1,9.08s-3.71,6.46-5.32,9.7c-1.95,3.93-5.44,7.11-8.49,10.19l-8.17,8.26-8.52,7.76c-3.11,2.83-5.46,5.23-9.7,6.67-1.66.56-4.57,1.09-6.04,1.85-3.12,1.62-6.23,1.24-9.3,2.34-7.19,2.56-13.99,4.47-21.62,5.5-4.09.55-7.53,1.83-11.85.85-5.24-1.2-7.82-4.03-9.44-9.34-2.33-7.66-4.14-9.14-3.43-20.02.09-1.38-2.09-3.62-.69-5.62-1.05-2.79-.97-5.34.3-8.03-1.15-3.42-.84-7.3.54-10.65s.89-6.56,1.39-10.1l2.14-15.17c1.11-7.89,4.09-15.14,6.74-22.52,1.81-5.03,3.64-9.74,7.49-13.64,1.67-5.39,4.05-10.26,7.1-15,.7-1.09,2.43-1.55,3.22-2.09,3.12-2.16,5.27-.56,7.87.46,2.74,1.08,4.38,1.48,5.99,4.3l6.3,11.02,2.9,6.18c1.03,2.19,2.74,3.14,3.17,6.36Z"/>
  </g>
</svg>