<?xml version="1.0" encoding="UTF-8"?>
<svg id="_レイヤー_2" data-name="レイヤー 2" xmlns="http://www.w3.org/2000/svg" viewBox="0 0 563.24 929.06">
  <defs>
    <style>
      .cls-1 {
        fill: none;
        stroke: #fff;
        stroke-linecap: round;
        stroke-linejoin: round;
        stroke-width: 5px;
      }
    </style>
  </defs>
  <g id="_レイヤー_1-2" data-name="レイヤー 1">
    <g>
      <path class="cls-1" d="M334.07,135.53c-2.78,1.4-5.86,1.7-8.79,2.49-3.88,1.05-7.27,3.72-10.87,5.7-4.04,2.22-7.91,4.76-11.72,7.32-3.89,2.61-6.16,6.99-8.82,10.77-4.81,6.84-9.17,13.99-12.29,21.85-1.6,4.02-3.6,7.94-6.16,11.49-3.88,5.37-5.24,11.9-8.14,17.72-3.99,8-5.89,16.74-8.56,25.21-4.3,13.63-6.68,27.71-9.75,41.63-2.48,11.23-4.08,22.66-7.31,33.72-1.1,3.76-1.14,7.65-1.55,11.48-1.21,11.43-.91,22.93-.65,34.39.29,12.48.99,24.94,2.47,37.36.37,3.07.73,6.02,2.02,8.85.9,1.96.05,3.94-.32,5.89-.75,4.06-.77,4.06,3.61,5.08"/>
      <path class="cls-1" d="M507.39,501.17c-.47-3.34,2.11-5.63,3.11-8.46,1.57-4.44,2.69-8.96,3.72-13.5,1.51-6.62,4.12-12.93,5.44-19.62.15-.75.6-1.85.74-2.67.78-4.32,1.84-8.54,2.97-12.78,2.88-10.8,5.86-21.58,8.49-32.44,1.36-5.63,2.3-11.38,3.68-17.02,1.19-4.87,2.29-9.77,2.95-14.74.46-3.51.5-7.08,1.64-10.49.11-.33-.05-.75.34-.98-2.85-3.71-.11-7.44.09-11.13.09-1.74.92-3.42,2.15-4.97,3.92-4.94,7.6-10.04,9.27-16.33,1.75-6.57,5.57-12.36,7.19-19.01,2.81-11.51,1.72-22.74-2.34-33.74-1.85-4.99-3.62-10-5.29-15.06-1.35-4.09-2.86-8.15-4.51-12.15-1.63-3.94-2.94-7.97-3.96-12.12-.96-3.93-2.84-7.51-4.54-11.16-2.09-4.49-3.96-9.06-5.64-13.73-3.84-10.63-7.35-21.36-10.86-32.09-3.3-10.1-8.77-19.15-15.27-27.58-3.05-3.96-5.12-8.63-8.87-12.1-8.96-8.31-17.97-16.49-29.47-21.34-4.39-1.85-9.22-2.2-13.51-4.43-1.29-.67-2.57-1.42-3.88-2.07"/>
      <path class="cls-1" d="M471.35,470.7c-2.4,3.32-2.35,7.03-1.63,10.81,1.55,8.23,1.99,16.53,2.45,24.89.6,10.71-.41,21.6,2.75,32.13,2.89,9.6,2.38,19.66,3.67,29.47.96,7.3,1.86,14.6,2.31,21.95.26,4.15.52,8.31.88,12.46.72,8.4,1.27,16.82,2.02,25.22.06.65.02,1.31,0,1.97-.15,11.27.62,22.54,1.49,33.73,1.1,14.09,1.24,28.24,2.99,42.29.64,5.16.1,10.47.11,15.71,0,1.39.05,2.66.9,3.99.73,1.14,2.12,2.31.82,4.26-1.36,2.04-2.94,2.95-5.32,2.94-.92,0-1.71-.58-2.46-.39-1.97-3.66-.71-7.65-1.31-11.45"/>
      <path class="cls-1" d="M299.34,459.23c-1.71,3.08-1.08,6.57-1.55,9.84-2.37,16.42-3.4,32.99-5.16,49.48-2.05,19.28-4.95,38.43-7.55,57.62-1.05,7.76-2.51,15.52-3.81,23.28-1.18,7.07-1.73,14.2-2.59,21.3-1.09,8.97-2.14,17.95-3.62,26.86-.69,4.13-.64,8.34-.8,12.46-.59,14.5-2.66,28.84-4.02,43.25-.22,2.29-.32,4.62-.76,6.87-1.04,5.32-3.32,6.83-8.46,4.87-2.69-1.02-5.06-2.77-7.54-4.23-1.59-.94-1.65-2.6-1.65-4.24-.04-8.33.06-16.63,1.22-24.91.46-3.32.46-6.76.69-10.15.35-5.01.48-10.07.54-15.07.12-9.25.83-18.39,2.13-27.52,1.37-9.59,1.45-19.36,3.64-28.82,3.21-13.85,3.1-28.25,7.18-41.94,1.34-4.5,2.13-9.1,2.63-13.76.47-4.41,2.25-8.5,3.3-12.77,1.56-6.37,1.85-12.91,2.83-19.35.74-4.9,1.69-9.77,2.16-14.72.15-1.56.11-3.06-.52-4.22-1.09-2.02-.62-3.79.1-5.61,1.83-4.6,2.83-9.48,4.65-14.06,1.03-2.6,1.81-5.28,2.39-7.93.58-2.6,1.73-3.45,4.08-3.41"/>
      <path class="cls-1" d="M455.62,377.98c2.05,1.72,2.72,4.12,3.68,6.52,5.25,13.16,8.84,26.84,13.05,40.32,4.21,13.49,8.35,27.01,14.01,40,1.91,4.39,2.84,9.17,4.27,13.75,1.21,3.86,4.04,7.3,3.89,11.45-.23,6.12,1.49,11.87,2.77,17.68,2.65,12,3.73,24.14,4.24,36.38.28,6.83,1.96,13.42,3.77,20.02,1.27,4.64,1.68,9.53,2.15,14.38,1.07,11.02,1.46,22.08,2.38,33.11.53,6.28,1.1,12.63.85,18.99-.42,10.82,1.49,21.45,2.97,32.1,1.55,11.13,3.28,22.21,4.34,33.41.61,6.45.23,13.07,2.44,19.36.46,1.32.13,2.67-1.54,3.65-4.05,2.38-7.64,5.56-12.17,7.12-.57.19-1.33.41-1.58.72-2.64,3.32-6.59,1.98-9.89,2.87-1.48.4-2.78-.84-4.25-.95"/>
      <path class="cls-1" d="M420.56,74.59c-3.45,2.64-6.9,1.64-7.46-2.3-.43-3.08-.88-6.07-2.33-8.86-.14-.26-.55-.54-.37-.96,1.95-4.65-.99-8.23-2.6-12.13-2.43-5.89-4.54-11.94-7.32-17.64-4.74-9.69-10.2-19.24-20.61-23.82-7.32-3.22-15.12-5.62-23.2-6.31-5.6-.48-10.63,1.96-15.72,3.88-6.88,2.6-13.27,5.92-18.03,11.78-2.34,2.89-5.56,4.92-7.86,7.87-3.47,4.44-4.59,9.88-5.75,15.11-1.5,6.74-2.79,13.55-2.51,20.61.44,10.78,2.28,21.32,4.72,31.76,1.47,6.28,4.02,12.2,7.44,17.73.42.68.72,1.44,1.35,1.94,6.94,5.42,9.09,13.89,13.54,20.9,3.51,5.53,4.15,12.65,9.43,17.06,2.73,2.29,5.04,5.45,9.13,5.62,2.66.11,4.84-1.63,7.53-1.74,3.4-.14,6.4-1.45,9.28-3.7,3.47-2.71,7.81-4.38,11.31-7.08,10.86-8.39,17.72-19.39,20-33.03.47-2.81-.89-5.46-1.43-8.18"/>
      <path class="cls-1" d="M161.4,666.3c1.82,6,7,7.6,12.14,9.11,1.19.35,2.43.43,3.6,1.03,5.9,3.02,12.2,3.46,18.66,2.66.66-.08,1.37-.16,1.95.32.4,3.97-1.33,7.43-2.99,10.78-2.68,5.42-3.92,11.12-4.57,17.06-.56,5.12-2.54,9.94-3.35,15.06-1.09,6.88-2.91,13.63-3.2,20.66-.3,7.37-2.46,14.45-3.94,21.62-2.77,13.39-6.55,26.54-9.22,39.96-1.29,6.48-2.57,13.03-4.58,19.32-2.71,8.48-4.85,17.2-8.79,25.24-2.7,5.52-5.2,10.96-4.29,17.39.29,2.06-1.63,3.18-3.23,3.88-4.85,2.11-6.52,6.59-8.48,10.87-.73,1.6-1.18,3.37-2.04,4.87-2.35,4.1-3.93,8.3-4.33,13.13-.36,4.41-2.55,8.45-4.47,12.46-.65,1.36-1.23,2.71-.97,4.26"/>
      <path class="cls-1" d="M175.16,631.9c-3.68,2.53-4.18,6.9-5.78,10.54-1.68,3.8-3.13,7.74-4.41,11.73-.69,2.16-1.61,4.1-1.39,6.57.27,3.04-1.9,4.97-5.13,5.19-1.16.08-1.94.55-2.61,1.35-9.24,10.97-19.29,21.29-26.26,34.04-4.83,8.84-10.08,17.45-15.1,26.19-2.67,4.66-6.33,8.74-9.54,13.06-2.76,3.71-4.41,8.02-7.35,11.61-3.4,4.15-6.8,8.32-9.94,12.69-3.71,5.17-6.91,10.67-10.65,15.84-6.73,9.29-12.78,19.07-19.31,28.51-4.55,6.58-8.34,13.72-12.56,20.56-1.39,2.25-1.45,4.71-.67,7.2"/>
      <path class="cls-1" d="M418.6,274.12c.15,2.32.38,4.62.71,6.92.34,2.39-1.24,5.15-1.7,7.82-2.64,15.61-6.26,31.04-9.27,46.57-2.52,13-5.28,26.02-6.5,39.27-.76,8.24-2.61,16.35-3.51,24.58-.44,4.02-1.26,8.03-1.02,12.12.39,6.88-1.25,13.55-1.87,20.32-.64,7.02-2.08,13.83-3.74,20.62-.86,3.51-1.5,3.74-5.22,3.31-1.51-.17-3.06-.13-4.58,0-2.87.24-5.6-.13-7.84-2.02-1.41-1.19-2.95-1.23-4.61-1.3-3.22-.15-6.52.63-9.76-.73-.41-2.21-.42-4.4.15-6.81.88-3.71.72-7.6.82-11.44.24-9.77,2.19-19.28,4-28.87,1.49-7.84,4.05-15.49,4.51-23.55.29-5.1,1.77-10.04,2.64-15.06,2.02-11.79,3.57-23.66,5.9-35.38,1.54-7.72,1.98-15.58,3.56-23.27,1.25-6.06,2.09-12.16,2.27-18.35.02-.77.29-1.72-.05-2.26-2.21-3.5-.09-6.66.77-9.84.74-2.73,1.76-5.46,2.11-8.22.43-3.35,2.18-5.09,5.03-6.21"/>
      <path class="cls-1" d="M269.52,730.84c7.63,1.91,15.2,3.93,22.3,7.49,4.38,2.19,9.28,2.79,14.06,3.65,4.1.74,8.2,1.44,12.13,2.93,4.23,1.61,8.46,2.9,13.09,3.42,14.28,1.6,28.66,1.79,42.93,3.23,9.93,1.01,19.81,2.34,29.82,1.87,6.45-.3,13.07-.11,19.29-1.48,13.12-2.88,26.5-4.6,39.37-8.61,1.27-.4,2.74-.44,4.26-.17,2.06.36,2.2,1.3,2.33,3.05.6,8.19-.28,16.42.68,24.57.35,2.96.02,5.91.53,8.86,1.71,9.75,3.47,19.45,3.19,29.49-.12,4.48-.87,9.77,3.4,13.43"/>
      <path class="cls-1" d="M146.99,698.08c-4.31,3.54-6.43,8.67-9.49,13.11-6.74,9.81-10.61,21.02-15.39,31.78-4.85,10.94-10.96,21.1-18.4,30.44-13.42,16.85-27.42,33.19-42.13,48.94-3.68,3.94-7.21,8.08-10.87,12.07-.9.98-1.72,1.79-3,1.9-2.84.25-4.45,2.09-5.91,4.27-4.68,7.01-10.63,13.05-15.33,20.03-.9,1.34-2.39,1.23-3.36,2.23-1.71,1.77-3.02,3.88-4.15,5.97-1.6,2.95-3.11,5.88-5.66,8.14-1.08.96-1.3,2.31-1.74,3.72.87,1.96,3.02,2.93,4.04,4.8"/>
      <path class="cls-1" d="M339.64,147.98c-4.7,1.76-6.42,5.86-7.49,10.17-2.46,9.9-5.46,19.64-7.12,29.77-1.03,6.28-3.41,12.43-4.62,18.73-2.63,13.63-5.37,27.25-7.5,40.96-.79,5.04-.53,10.28-1.44,15.38-.45,2.54-1.33,4.8-3.29,6.55"/>
      <path class="cls-1" d="M165.66,761.64h-2.62c-1.59,7.22-4.43,14.03-6.88,20.97-4.54,12.89-7.78,26.17-11.46,39.32-4.08,14.58-8.16,29.15-12.74,43.59-1.1,3.46-2.51,6.7-4.31,9.81"/>
      <path class="cls-1" d="M271.82,453.66c-3.59,9.43-9.71,17.53-14.03,26.57-3.03,6.35-6.43,12.52-9.26,18.96-.56,1.29-.95,2.62-1.25,3.95-2.5,11.09-8.83,20.43-14.29,30.04-5.53,9.73-10.95,19.49-14.72,29.98-1.79,4.99-4.33,9.33-7.06,13.7"/>
      <path class="cls-1" d="M180.41,686.94c-1.36.21-2.25,1.11-2.59,2.3-3.5,12.38-9.62,23.79-13.43,36.04-4.24,13.66-8.4,27.34-12.82,40.94-2.33,7.19-5.26,14.15-8.51,20.97-1.24,2.61-3.07,4.62-5.89,5.57"/>
      <path class="cls-1" d="M266.9,716.1c2.76,5.43,2.7,10.99,1.01,16.72-1.16,3.93-.87,8.08-1.36,12.11-1.16,9.63-3.16,19.02-6.42,28.22-2.56,7.24-3.66,14.94-4.67,22.57-.43,3.27-2.32,6.14-2.34,9.5-.02,2.17.41,3.29,2.89,4.43,8.11,3.72,16.53,5.9,25.31,7.04"/>
      <path class="cls-1" d="M139.62,772.13c.7,3.56-1.57,6.37-2.54,9.48-1.03,3.31-2.21,6.47-.56,9.85.78,1.61-.11,2.87-.65,4.27-5.85,15.4-12.42,30.51-18.27,45.9-3.61,9.48-6.72,19.15-9.2,29.06-1.45,5.77-4.07,11.44-6.28,17.11-1.21,3.11-1.46,6.29-.34,9.5"/>
      <path class="cls-1" d="M158.13,700.05c-2.1,1.74-3.05,4.26-4.22,6.57-8.67,17.11-16.34,34.67-23.72,52.37-3.28,7.87-7.53,15.34-11.38,22.97-2.62,5.19-5.04,10.48-8.13,15.44-.22.35-.34,1.03-.42,1.6-1.19,8.24-7.01,14.42-9.81,21.95-.26.7-.83,1.1-1.62,1.34-2.88.91-4.59,3.08-6.28,5.51-8.62,12.32-17.28,24.6-26.14,36.75-1.75,2.39-3.23,5-2.97,8.17"/>
      <path class="cls-1" d="M307.86,270.19c-.7,6.65-.5,13.32-.72,19.98-.14,4.24-.6,8.39,2.01,12.14.66.95.34,2.16.34,3.26.01,18.35.03,36.7-.01,55.04,0,3.69.73,7.04,3.3,9.83"/>
      <path class="cls-1" d="M410.41,887.13c-6.24,0-6.11.05-8.24,5.88-1.52,4.16-3.23,8.3-6.52,11.47-1.26,1.21-1.91,2.77-2.58,4.29-1.14,2.58-.21,5.13,2.27,6.53,2.23,1.27,4.53,2.42,7.2,2.29,1.72-.08,2.07,1.68,3.27,2.32,3.61,1.93,7.51,2.81,11.47,3.61,4.16.84,8.4,1.13,12.48,2.53,4.3,1.48,8.16-.53,11.74-2.63,2.12-1.24,4.1-2.41,6.57-2.97,3.37-.77,4.58-4.28,3.62-9.08"/>
      <path class="cls-1" d="M294.42,183.69c1.79,3.03,2.41,6.34,2.66,9.83.66,9.52-1.34,18.82-2.44,28.17-.95,8.08-2.22,16.17-1.41,24.25.94,9.32-1.42,18.34-1.46,27.53-.01,2.44-1.42,4.34-3.24,5.9"/>
      <path class="cls-1" d="M111.6,780.65c-2.86.98-4.08,3.58-5.17,5.93-4.73,10.17-11.88,18.83-17.38,28.5-3.99,7-9.28,12.93-14.47,18.97-5.94,6.93-11.27,14.41-18.34,20.33-3.44,2.88-6.78,5.9-10.24,8.74-3.43,2.82-4.43,6.17-4.18,10.25"/>
      <path class="cls-1" d="M453.33,376.67c-3.39,4.77-1.62,9.96-.49,14.71,1.43,6.01,2.55,12.08,4.09,18.06,1.46,5.64,2.26,11.42,3.82,17.07,1.55,5.57,2.17,11.4,3.72,17.01,1.57,5.7,2.95,11.46,4.96,17.02.9,2.47.36,5.19,1.6,7.55.33.63.03,1.51.65,1.96,5.77,4.19,7.12,11.63,12.11,16.4,1.57,1.5,3,3.11,4.31,4.88,1.39,1.89,3.54,2.7,5.85,2.98"/>
      <path class="cls-1" d="M276.4,491.01c-3.3,1.31-5.07,3.66-5.98,7.19-1.81,7-5,13.52-8.17,19.98-2.06,4.19-2.95,8.82-5.47,12.83-5.01,7.94-8.64,16.65-13.67,24.63-2.84,4.5-5.26,9.42-7.2,14.39-1.72,4.39-4.99,7.64-7.1,11.7-.49.94-2.29,1.72-3.47.67-2.7-2.4-5.86-2.37-9.19-2.74-3.16-.35-5.68-2.93-8.51-4.47-1.7-.93-3.23-3.06-5.21-2.13-2.01.94-1.46,3.46-1.74,5.44-.66,4.6-1.88,9.04-3.39,13.5-2.04,6-4.82,11.29-9.35,15.66-2.08,2.01-1.53,5.51-3.95,7.17-2.53,1.74-3.58,4.17-4.66,6.88-.92,2.31-2.67,4.32-3.84,6.59-.91,1.75-1.09,3.14.98,4.29,6.52,3.63,12.99,7.45,20.34,9.08,4.42.98,9.04,1.02,13.42,2.36"/>
      <path class="cls-1" d="M501.82,729.86c.95,3.67.1,7.42.58,11.15.94,7.27.84,14.65,1.72,21.94,1.13,9.37,2.03,18.79,2.42,28.19.32,7.68,2.7,14.83,3.85,22.26.6,3.89.08,4.9-3.65,4.91-2.95.01-5.69.59-8.57,1.49-5.13,1.62-10.48,2.74-16.01,1.82-3.49-.58-5.86,1.09-6.16,4.56-.31,3.65-3.48,4.23-5.72,5.39-1.45.75-2.97,1.29-4.17,2.46-1.5,1.46.43,2.71.24,3.92-.41,2.73-.39,5.64-1.33,8.17-1.6,4.33-.05,8.89-1.5,13.16-.15.46-.05,1.05.25,1.65,2.44,4.79,1.48,9.12-1.53,13.46-2.23,3.22-1.27,5.03,2.53,6.87,1.19.58,2.44,1.01,3.62,1.6"/>
      <path class="cls-1" d="M423.51,752.47c1.2,3.29,1.46,6.6,1.43,10.16-.22,25.44-.11,50.89-.14,76.34,0,1.23.17,2.47.44,3.58.56,2.25,1.03,4.04-1.67,5.37-.92.45-1.51,2.12-1.35,3.49.52,4.6-1.52,8.74-2.33,13.1-.96,5.24-3.11,9.84-7.86,12.76-.74.46-.7,1.03-.63,1.66.46,4.14-.48,8.3.28,12.46.64,3.52,1.54,6.96,3.72,9.77,1.42,1.83,1.42,3.08-.04,4.67-.29.31-.42.86-.68,1.29-2.14,3.57-1.91,5.37.97,8.19.85.83,1.93.72,2.95.64,4.29-.36,8.53-.49,12.8.58,2.02.5,4.13-.01,6.26-1.1,3.74-1.92,8.17-1.98,12.09-3.66,1.27-.55,2.31-.89,2.98-2.32,1.41-3.05,3.86-5.75,2.35-9.57-.11-.29.17-1.49.48-2.27,1.36-3.42.83-6.63-1.58-9.48"/>
      <path class="cls-1" d="M484.45,171.24c-1.74.21-2.46,1.74-2.54,2.95-.35,5.53-2.73,10.39-4.7,15.38-2.9,7.36-3.96,15.28-6.91,22.6-2.61,6.46-2.39,13.43-4.23,20-1.56,5.59-3.09,11.15-2.61,17.04.08.99-.26,2.13.37,2.92,1.68,2.14,1.26,3.93-.31,5.96-1.24,1.61-2.49,2.89-4.63,2.91"/>
      <path class="cls-1" d="M404.18,205.64c2.36,2.25,4.95,4.21,8.2,4.85,1.34.26,1.89.99,2.27,2.03,1.54,4.24,4.12,8.07,5.21,12.46,1.32,5.32,5.41,8.79,8.27,13.07.64.96,1.34,1.85,1.59,2.97,1.25,5.66,5.7,7.74,10.49,9.52,2.27.84,4.57,1.58,6.87,2.33,4.63,1.5,9.06,3.45,11.32,8.48-1.45,3.07-1.02,6.47-.67,10.16.75,7.89,2.15,15.68,2.84,23.57.41,4.7.42,9.41.21,14.09-.18,4.1.78,7.92,1.71,11.8.09.36.4.46.64.67,5.57,5.01,7.46,12,9.74,18.69.98,2.89,2.48,5.44,3.66,8.18,2.62,6.09,4.22,12.52,5.61,18.98,1.57,7.27,2.92,14.58,3.96,21.95.62,4.37.25,8.74.31,13.11"/>
      <path class="cls-1" d="M381.9,283.62c-2.98.73-4.61,2.83-5.57,5.57-2.63,7.5-6.45,14.35-10.75,21.01-2.06,3.18-3.56,6.74-4.7,10.43-.63,2.04-1.46,4.08-2.6,5.9-6.37,10.22-11.48,21.15-17.69,31.46-1.84,3.05-1.32,6.75-2.91,9.85-.35.69.34,1.4.67,1.92,1.53,2.4,1.35,4.91.98,7.57-.56,4.12-.53,8.31-1.01,12.45-.09.75.01,1.53-.02,2.29-.08,1.86-1.57,4.32.11,5.41,1.95,1.26,4.54,1.84,7.1,1.82,6.34-.06,12.69-.2,19,.63"/>
      <path class="cls-1" d="M379.94,764.26c-4.13.04-4.38.16-4.23,4.26.4,10.72-.58,21.4-.79,32.11-.24,12.02-1.72,24-1.9,36.04-.03,2.18-.93,4.26-1.92,6.23"/>
      <path class="cls-1" d="M305.56,299.02c-3.43,2.15-3.33,5.92-3.86,9.19-1.84,11.49-2.34,23.09-2.75,34.72-.33,9.51-.9,19.01-1.42,28.51"/>
      <path class="cls-1" d="M419.25,76.23c5.13,6.66,5.41,14.57,4.62,22.25-.31,2.97-1.14,6.07-1.38,9.2-.27,3.52-1.56,6.81-2.6,10.16-.96,3.11-2.27,6.12-1.04,9.53.37,1.05.03,2.36-.22,3.59-2.21,10.86-5.27,21.54-7.11,32.45-1.27,7.48-3.52,14.64-5.38,21.93-.74,2.91-.45,5.75.65,8.52"/>
      <path class="cls-1" d="M506.08,190.24c-1.69.07-1.94,1.62-2.23,2.64-2.4,8.5-6.93,15.93-11.05,23.65-6.49,12.14-14.8,22.99-22.38,34.36-1.3,1.95-2.78,3.27-4.97,3.9"/>
      <path class="cls-1" d="M365.19,154.86c3.76,6.51,4.82,13.9,6.85,20.98.22.76,0,1.59.67,2.3,2.5,2.68,1.48,5.31-.31,7.84-2.76,3.91-6.12,7.34-8.32,11.73-1.2,2.4-2.34,4.85-3.42,7.3-1.8,4.09-3.92,7.78-7.9,10.16-2.32,1.39-3.27,6.8-2.36,10.47.5,2,2,3.85.81,6.26-.51,1.04-.87,2.11-1.74,2.89-2.91,2.64-3.79,5.95-4.01,9.83-.41,7.12-1.43,14.21-2.09,21.31-1.02,10.84-3.49,21.5-3.72,32.43-.16,7.47.52,14.4,2.63,18.02"/>
      <path class="cls-1" d="M287.87,753.62c1.26,3.07.54,6.2.36,9.34-.29,4.92-2.09,9.57-2.59,14.42-.67,6.43-1.57,12.83-1.75,19.32-.18,6.37-.62,12.75-1.98,18.99-.37,1.69-.08,3.16.44,4.58.67,1.85.58,3.71.61,5.59"/>
      <path class="cls-1" d="M417.62,124.39c-2.93.17-4.82,2.01-6.19,4.28-6.33,10.45-14.6,19.63-20.28,30.48-2.81,5.37-6.88,9.71-10.57,14.37-.75.94-1.49,1.93-1.88,2.99-.79,2.14-2.25,3.3-4.32,3.91"/>
      <path class="cls-1" d="M353.73,157.15c.28,4.28-.34,8.52-.67,12.78-.24,3.07-.93,6.1-.94,9.17-.03,9.22-.17,18.41-1.91,27.54-.56,2.93-.47,6.15,1.55,8.83"/>
      <path class="cls-1" d="M538.84,364.22c-2.38.73-4.16,2.17-5.59,4.24-6.24,9.06-13.86,16.88-22.28,23.91-5.74,4.79-12.39,8.1-19.33,10.78-.63.24-1.51.75-2.26.37-2.94-1.48-4.93.18-6.9,2.24-.09,1.52.61,2.92,1.98,4.01"/>
      <path class="cls-1" d="M100.14,822.25c1.2,3.37.81,6.7-.68,9.82-5.45,11.36-10.38,22.98-16.98,33.78-1.95,3.19-3.71,6.32-3.95,10.45-.12,1.98-1.37,4.72-2.59,6.92-.2.37-.74.73-.66.95,1.97,5.26-2.17,10.5-.04,15.74"/>
      <path class="cls-1" d="M293.44,388.79c.9-2.28-.31-3.08-2.26-3.99-6.77-3.16-13.03-.64-19.36,1.38-7.31,2.33-12.93,7.44-19,11.79-1.26.9-1.85,2.32-2.63,3.6-1.32,2.17-3.04,3.88-5.57,4.59"/>
      <path class="cls-1" d="M423.19,82.12c1.12-.36,2.18-.91,3.29-1.27,1.64-.54,3.27-.82,4.59.93,3.85,5.13,9.24,8.66,13.77,13.09,3.36,3.28,5.91,7.1,7.04,11.54.67,2.65.66,5.56-.04,8.52-.88,3.74-2.99,6.87-4.1,10.44-.67,2.15-1.29,4.4-1.19,6.56.22,4.9-.47,9.72-1.53,14.39-1.19,5.22-1.45,10.54-2.4,15.77-.57,3.13-1.7,5.52-4.36,7.19"/>
      <path class="cls-1" d="M423.19,848.14c-3.12-3.05-6.85-3.01-10.82-2.32-8.58,1.5-17.25.34-25.88.64-.52.02-1.13-.25-1.64-.61-4.01-2.8-8.39-2.05-12.77-1.32"/>
      <path class="cls-1" d="M466.11,264.94c6.38-.13,12.28,2.14,18.35,3.59,8.67,2.06,17.16,5.13,26.21,5.22,1.72.02,3.21.6,4.56,1.4,1.74,1.04,3.36,1.79,5.26.59.3-.19.45-.32.67-.32,3.54-.15,7.01-.83,10.49-1.46"/>
      <path class="cls-1" d="M395.34,234.8c-3.3-.67-5.87-2.68-8.53-4.57-2.87-2.05-6.05-1.98-8.51-.02-.37.29-.96.62-.94.99.24,3.96-3.02,6.9-3.03,10.81,0,2.45.34,4.59,2.33,6.23,3.72,3.06,2.91,7.22,1.18,10.4-5.78,10.66-10.82,21.69-17.38,31.97-3.2,5.02-5.98,10.49-9.26,15.46-2.31,3.49-4.27,7.48-8.13,10.2-2.82,1.99-3.95,6.24-4.84,9.68-.65,2.52-1.93,4.6-2.96,6.77-3.65,7.68-7.12,15.49-12.3,22.36-1.64,2.18-2.72,4.74-3.98,7.17-1.49,2.86-2.12,6.33-5.53,7.91-1.11.51-1.09,1.97-1.24,2.93-.41,2.52-1.08,4.99-1.42,7.52-.25,1.84-.83,3.35-2.52,4.69-2.57,2.03-3.47,5.22-4.02,8.42-.27,1.6-.72,3.15-2.61,3.61"/>
      <path class="cls-1" d="M453.66,359.63c4.44,1.62,7.23,4.47,8.98,9.12,2.97,7.86,5.4,15.99,9.69,23.32,1.68,2.87,2.28,6.23,4.51,8.91,1.59,1.91,3.06,3.76,5.32,4.85"/>
      <path class="cls-1" d="M435.96,179.43c2.37,3.31,1.27,6.87.25,10.13-2.64,8.46-4.54,17.11-7.13,25.58-.72,2.36-.37,4.97-1.63,7.21"/>
      <path class="cls-1" d="M260.02,288.86c.44,1.53,1.96,2.03,2.99,2.9,8.57,7.19,14.61,16.05,18.34,26.58,1.05,2.95,2.87,5.41,6.19,6.24"/>
      <path class="cls-1" d="M343.57,877.63c-1.43-.76-.22-1.54,0-2.29,1.79-5.9-.02-9.28-7.22-9.79-5.92-.42-11.57,1.08-17.03,3.25-6.46,2.56-13.14,3.16-19.99,2.45"/>
      <path class="cls-1" d="M322.27,835.03c-5.01-3.38-10.04-6.48-16.37-6.98-3.45-.27-6.51-2.42-9.81-3.57-4.18-1.46-8.35-2.53-12.8-2.22"/>
      <path class="cls-1" d="M465.12,835.36c-4.77.66-8.64,3.94-13.43,4.61-3.04.42-5.87,1.55-8.16,3.62-1.15,1.04-2.35.94-3.64.94-4.63,0-9.28-.28-13.76,1.31"/>
      <path class="cls-1" d="M243.64,415.66c-.86,3.17-2.15,6.26-2.55,9.51-.26,2.07.12,4.34,2.56,5.21,3.48,1.25,6.86,2.77,10.47,3.64,3.91.94,7.65-.42,11.47-.67"/>
      <path class="cls-1" d="M430.39,161.74c-1.62.86-2.83,2.15-3.95,3.59-5.21,6.72-9.17,14.14-12.44,21.96-1.17,2.81-3.15,4.8-5.87,6.28-2.7,1.47-3.94,4.16-3.91,7.15.04,4.52-.47,5.78-4.65,6.43-2.11.33-3.73,1.34-5.55,2.1-3.32,1.38-5.43,3.67-5.25,7.52"/>
      <path class="cls-1" d="M340.62,432.37c-1.42.63-1.94,1.65-2.41,3.24-1.3,4.47-2.9,8.87-4.79,13.14-1.78,4.02-5.87,4.19-9.2,5.51-3.49,1.38-7,.08-10.46-.52v-2.7"/>
      <path class="cls-1" d="M270.83,398.29c-1.48,4.36-1.56,8.93-1.92,13.44-.24,3-.13,5.94-1.25,8.88-.75,1.97-.92,4.27-.79,6.51.21,3.71-1.1,7.33.44,11.23.71,1.79-.45,4.68-.41,7.11.06,4.28,2.37,7.23,6.56,8.17,2.1.47,3.79,1.88,5.87,2.39.38.09.47,1.2.35,1.89"/>
      <path class="cls-1" d="M431.7,155.51c-.12,1.79.39,3.63-.92,5.29-.4.5.3,1.29.82,1.99,1.36,1.85,3.23,3.13,4.75,4.78,1.26,1.36,1.7,2.44,1.35,4.34-.35,1.9-1.08,3.67-1.44,5.55-.12.62-.27,1.43-.97,1.62-4.39,1.21-5.7,5.14-7.5,8.55-2.13,4.03-5.13,7.56-6.88,11.79-1.61,3.9-2.9,7.94-5.66,11.24-.08.1-.34.89-.92.54"/>
      <path class="cls-1" d="M217.43,610.93c.45,5.38,1.11,10.73-1.91,15.76-1.2,2.01.11,4.62-1.01,6.86-1.62,3.25-2.12,6.9-3.71,10.26-1.03,2.16-.6,5.26-1.88,7.75-4.55,8.87-7.07,18.59-11.48,27.51"/>
      <path class="cls-1" d="M338.33,398.29c-1.5,2.88-1.82,6.04-1.93,9.17-.27,7.7-1.99,15.25-2.17,23.44.92,1.22,2.9,1.68,4.43,2.77"/>
      <path class="cls-1" d="M337.34,368.48c-4.19,1.8-5.65,6.15-8.48,9.21-4.02,4.34-6.21,9.87-8.79,15.08-1.18,2.38-2.68,3.92-5.01,4.87"/>
      <path class="cls-1" d="M460.86,878.94c-5.66-1.37-10.45,1.48-15.37,3.36-2.74,1.05-5.68,1.55-8.25,3.15-2.9,1.81-5,4-5.22,7.58"/>
      <path class="cls-1" d="M450.71,316.71c-2.02,1.17-2.49,3.19-3.41,5.18-2.37,5.1-1.52,9.77.04,14.83,2.19,7.1,2.94,14.61,5.61,21.62.32.84.1,1.9-.2,2.95-1.3,4.57-.83,9.15.18,13.75.3,1.35,1.25,1.52,2.03,2.12"/>
      <path class="cls-1" d="M184.99,614.86c2.7,2.32,4.75,5.32,7.86,7.22,4.04,2.47,8.68,2.61,13.11,3.61,2.92.67,5.98.34,8.85,1.29"/>
      <path class="cls-1" d="M462.17,320.97c-4.63,1.18-7.41-2.34-10.8-4.29-1.03-.6-.49-1.97-.96-2.94-1.02-2.09-2.63-3.72-3.96-5.56-1.56-2.15-3.51-3.94-4.04-6.86-.56-3.11-3-5.45-5.22-7.47-3.49-3.17-7.05-6.29-10.72-9.28-1.97-1.6-4.18-2.58-6.57-3.26"/>
      <path class="cls-1" d="M311.79,432.37c-1.16-1.25-1.78-2.82-2.66-4.24-1-1.61-2.21-2.96-4.19-3.7-2.82-1.06-3.67-4.05-4.5-6.52-1.02-3.04-3.27-5.15-4.68-7.84-.36-.68-1.01,0-1.33-.48"/>
      <path class="cls-1" d="M134.87,894.01c-1.67.88-3.52.36-5.25.53-4,.4-5.48,4.09-8.47,5.75-3.4,1.89-6.66,4.02-10.53,4.81-.69.14-1.6.42-2.28-.28"/>
      <path class="cls-1" d="M379.61,252.17c.81.24,1.48-.36,2.29-.36,7.19,0,7.44.6,9.46,7.91.58,2.09,1.01,4.02,3.31,4.92,3.22,1.25,5.41,4.02,8.09,6.02,4.77,3.57,9.76,6.3,15.5,7.72"/>
      <path class="cls-1" d="M455.95,903.51c5.53-.59,7.02-5.26,9.14-9.19,1.87-3.46,3.89-6.95,3.61-11.12-.03-.4.34-.57.39-.61,3.96-3.18,3.61-7.96,4.1-12.18.72-6.11-1.14-7.79-7.41-6.54"/>
      <path class="cls-1" d="M93.91,883.52c-.54,2.01-1.64,3.78-2.67,5.54-1.25,2.14-2.29,4.52-5.51,4.74-1.38.1-2.75,1.49-3.91,2.53-1.47,1.34-2.87,2.56-4.94,2.97-1.44.29-2.52,1.47-2.93,2.9-1.72,5.97-4.61,11.48-6.62,17.34-.7,2.06-1.06,4.09-.94,6.24"/>
      <path class="cls-1" d="M368.47,857.31c-1.32.28-2.55.68-3.62,1.62-4.6,4.03-9.54,7.24-16.04,7.31-1.83.02-3.6,1.21-5.24,2.21"/>
      <path class="cls-1" d="M234.14,586.68c-1.89,1.5-2.89,3.68-4.23,5.59-2.12,3.02-4.04,6.19-6.23,9.17-1.31,1.78-2.57,3.51-3.09,5.86-.47,2.14-1.96,3.4-4.81,3.08-6.14-.69-10.78-4.3-15.65-7.41-1.65-1.05-3.36-2.06-4.98-3.18"/>
      <path class="cls-1" d="M375.02,237.42c-5.41-2.26-11.14-3.75-16.11-7.13-1.91-1.3-4.44-1.5-6.83-.73"/>
      <path class="cls-1" d="M518.86,276.74c4.92,7.88,11.41,14.29,18.65,20.02,1.02.81,1.93.64,2.97.46"/>
      <path class="cls-1" d="M410.08,62.47c-6.35-1.2-8.67.63-11.74,5.93-1.39,2.4-3.06,4.8-3.04,7.83,0,.58-.66.79-1.27.66"/>
      <path class="cls-1" d="M462.17,880.9c-1.3,4.2-5.4,5.24-8.6,6.7-4.16,1.91-8.47,3.7-13,4.86-2.32.59-4.54,1.06-6.91.89-.67-.05-1.79-.36-1.9-.26-3.97,3.47-8.41.02-12.51.91"/>
      <path class="cls-1" d="M296.39,858.62c-6.28.62-9.88,5-13.45,9.49-2.84,3.58-3.34,8.06-4.96,12.11-.36.89.16,1.15.39,1.66,1.31,2.82,3.14,5.33,4.94,7.84.91,1.27,2.41.85,3.2-.02,2.27-2.51,4.96-1.46,7.58-1.27"/>
      <path class="cls-1" d="M289.84,426.8c.77.11,1.02.58.99,1.31-.23,6.36,4.96,8.14,9.2,10.42,5.91,3.16,5.98,2.94,9.48-2.87.99-1.64,1.82-3.26,4.21-3.77,1.72-.36,2.61-2.33,2.69-4.43.14-3.61.77-7.19.97-10.81.16-2.92-.7-5.4-2.65-7.54"/>
      <path class="cls-1" d="M51.97,868.45c-2.62,4.28-7.74,3.98-11.58,6,.66,3.16,1.71,5.95,2.67,8.86-5.06,6.53-11.47,11.78-18.28,16.59"/>
      <path class="cls-1" d="M442.52,303.93c-.36.24.02.07-.32.33-1.33,1.03-3.75,1.24-4.1,2.66-.49,2.02-.26,4.31.08,6.52.38,2.39.97,4.74,1.15,7.19.16,2.18,1.34,4.16,3.19,5.58"/>
      <path class="cls-1" d="M514.27,244.8c-2.48-.16-4.3.81-5.95,2.74-2.3,2.69-5.2,4.89-7.42,7.63-2.68,3.3-7.71,3.56-9.65,7.77-.15.33-1.65.04-2.53.04"/>
      <path class="cls-1" d="M280.99,435.48c2.96.44,5.03,2.56,6.78,4.51,2.62,2.93,5.93,5,8.59,7.8,2.43,2.56,4.85,1.16,7.23.26,2.26-.85,1.95-2.99,1.98-4.88,0-.66,0-1.31,0-1.97"/>
      <path class="cls-1" d="M400.91,223.66c-3.67-2.15-7.69-3.61-11.22-6.11-2.07-1.47-4.94-.37-7.08.65-2.06.98-1.82,3.44-1.66,5.46.12,1.55,1.01,2.98.95,4.59"/>
      <path class="cls-1" d="M30.02,867.8c-1.9,3.26-4.35,6.14-6.61,9.13-1.61,2.12-2.6,4.33-2.89,6.93"/>
      <path class="cls-1" d="M74.91,884.51c-3.99.26-6.54,3.17-9.45,5.31-1.57,1.15-3.05,2-4.96,1.88-2.09-.13-2.98,1.54-4.26,2.64-3.35,2.87-6.76,5.67-10.81,7.54"/>
      <path class="cls-1" d="M303.27,459.07c-1.94.23-3.89.6-4.94-1.79-.56-1.29-1.92-1.23-2.91-.95-3.61,1.03-6.33-.18-8.53-3-.85-1.09-1.97-1.79-3.28-1.92-1.16-.12-1.51-.51-2.06-1.63-1.55-3.15-3.44-6.15-6.1-8.59-2.09-1.93-4.34-3.06-7.23-2.59"/>
      <path class="cls-1" d="M88.67,893.35c1,2.14.89,4.36.31,6.55-.76,2.86-.83,5.68.02,8.52"/>
      <path class="cls-1" d="M414.67,75.9c-3.53,7.75-2.81,15.35.62,22.95,1.36,3.01,4.02,3.09,6.59,3.59"/>
      <path class="cls-1" d="M310.15,384.2c2.06,1.71,2.87,3.93,2.61,6.55-.22,2.22.02,4.45,1.38,6.18,1.23,1.57,1.17,3.06.57,4.62-.98,2.55-1.12,5.04.03,7.55"/>
      <path class="cls-1" d="M481.83,732.48c-3.18,3.47-6.71,6.49-10.79,8.88-.91.53-1.95,1.1-2.31,2.26"/>
      <path class="cls-1" d="M428.1,895.32c-2.09,4.92-5.95,7.34-11.14,7.86"/>
      <path class="cls-1" d="M287.22,324.9c-.27,1.19.11,2.24.65,3.28,1.73,3.28,2.37,6.83,2.62,10.48"/>
      <path class="cls-1" d="M277.39,880.9c-5.76.93-7.4,4.47-4.26,9.17,1.29,1.92,3.04,3.45,5.25,3.87,5.21.98,9.15,4.46,13.69,6.74,2.98,1.5,6.03,2.07,8.87,1.36,3.77-.95,7.17-.14,10.49.91,3.64,1.15,6.99,1.08,10.52-.08,7.23-2.37,13.08-6.81,18.71-11.77,5.52-4.87,11.71-8.84,18.3-12.19,4.12-2.09,7.35-5.24,9.1-9.52.89-2.17,1.82-4.41,2.14-6.83.13-.95.4-1.87-.12-2.61-1.64-2.35-.96-4.58.02-6.91,1.05-2.5.91-5.26,1.54-7.88.58-2.4-1.76-2.98-3.49-2.86-7.42.52-14.63-1.33-21.94-1.87-4.59-.34-9.21-2-13.42-4.14-2.87-1.45-5.81-1.61-8.87-1.61-1.89,0-2.14,1.5-2.23,2.65-.32,4-2.34,6.75-5.62,8.87-3.23,2.09-6.17,4.58-9.41,6.7-2.82,1.84-3.7,5.67-4.3,9.02-.52,2.95-.83,5.87.79,8.9,1.52,2.84-1.2,4.95-2.9,6.76-2.54,2.7-4.01,5.81-5.25,9.21-.86,2.36-.2,3.15,2.03,3.66,6.82,1.57,13.75,2.51,20.25-.5,3.49-1.62,6.45-4.49,9.91-6.39,1.71-.93,3.41-2.13,5.56-1.33"/>
      <path class="cls-1" d="M40.18,875c-3.41.11-6.32.85-8.26,4.22-2.08,3.6-5.95,4.93-9.77,5.15-3.52.2-5.86,1.14-8.35,3.91-2.86,3.16-6.25,6.56-11.3,6.38"/>
      <path class="cls-1" d="M163.04,857.97c-1.32,5.19-4.16,8.81-9.83,9.5"/>
      <path class="cls-1" d="M113.9,889.09c-2.28,2.14-3.96,4.78-5.91,7.19-.89,1.1-1.73,2.11-3.62,1.4-2.28-.86-3.83,0-4.98,2.5-1.73,3.74-4.6,6.52-8.73,7.97-3.51,1.23-4.28,4.68-5.26,7.8"/>
    </g>
  </g>
</svg>