<?xml version="1.0" encoding="UTF-8"?>
<svg id="_レイヤー_2" data-name="レイヤー 2" xmlns="http://www.w3.org/2000/svg" viewBox="0 0 80 28.26">
  <defs>
    <style>
      .cls-1 {
        fill: none;
        stroke: #fff;
        stroke-linecap: round;
        stroke-linejoin: round;
        stroke-width: 3px;
      }
    </style>
  </defs>
  <g id="_レイヤー_1-2" data-name="レイヤー 1">
    <g>
      <path class="cls-1" d="M79,1c-5.25,1.16-10.36,3.05-15.68,3.73-3.78.48-7.51,1.59-11.5.92-2.46-.42-5.05.77-7.62,1.07-5.02.58-10.24.55-14.98,2.66-4.94,2.21-10.21,4.07-11.59,10.4-.21.94-1.23,2.52-2.02,2.69-5.03,1.09-8.95,5.63-14.6,4.64"/>
      <path class="cls-1" d="M33.38,19.11c3.6-1.35,7.2-.49,10.85-.21-2.35,2.55-5.55,2.9-8.43,3.6-5.81,1.42-11.81.67-17.74.8-.86.02-1.42-.53-2.09-.88"/>
      <path class="cls-1" d="M64.2,10.75c-1.74-.93-1.73-.9-3.31-.35-6.66,2.3-13.54,2.99-20.54,2.79"/>
      <path class="cls-1" d="M63.33,11.45c-1.05,1.67-3.01,1.82-4.56,2.35-4.94,1.71-9.3,4.89-14.6,5.66"/>
      <path class="cls-1" d="M47.66,6.92c-4.12,3.36-8.05,7.22-13.59,7.92-3.06.39-5.64,1.33-8.01,3.21-2.34,1.86-5.14,2.13-8,2.1"/>
      <path class="cls-1" d="M73.78,3.09c-1.99,3.86-6.12,4.84-9.4,6.96"/>
      <path class="cls-1" d="M39.3,10.05c-3.7-.06-6.26,1.74-8.01,4.88"/>
      <path class="cls-1" d="M49.4,17.37c-2.66-1.78-4.21-1.5-5.92,1.04"/>
    </g>
  </g>
</svg>