<?xml version="1.0" encoding="UTF-8"?>
<svg id="_レイヤー_2" data-name="レイヤー 2" xmlns="http://www.w3.org/2000/svg" viewBox="0 0 25.42 63.3">
  <defs>
    <style>
      .cls-1 {
        fill: none;
        stroke: #fff;
        stroke-linecap: round;
        stroke-linejoin: round;
        stroke-width: 3px;
      }
    </style>
  </defs>
  <g id="_レイヤー_1-2" data-name="レイヤー 1">
    <g>
      <path class="cls-1" d="M20.58,1c-4.23,1.2-3.87,3.63-7.73,7.61-1.28,1.32-1.79,2.91-1.89,4.26-.29,3.98-.22,8.01-.07,12.11-1.5,1.83-4.35,3.23-3.19,6.68"/>
      <path class="cls-1" d="M10.83,10.07C5.9,12.1,2.04,15.07,1.42,20.86c-.21,1.94-1.42,4.11,1.59,5.48,1.32-2.14,2.65-4.2,3.87-6.24.95-1.61,1.84-2.42,3.6-2.37"/>
      <path class="cls-1" d="M11.87,22.52c3.33,4.04,5.88,11.72,7.35,16.79.35,1.2,1.43,1.96,2.34,2.86,3.69,3.64,3.66,6.12.76,10.03-1.84,2.48-3.66,4.98-6.62,6.27"/>
      <path class="cls-1" d="M2.12,26.44c-1.17,1.18-.83,3.26-.25,3.71,3.18,2.52,5.98,5.79,10.35,6.39"/>
      <path class="cls-1" d="M9.78,26.78c1.99,2.18,1.59,5.18,2.23,7.71.9,3.59,5.37,6.54,8.57,7.96"/>
      <path class="cls-1" d="M19.53,50.46c-1.83,2.24-4.24,4.12-4.53,7.31-.04.46,0,.81.01.35,0,0,.22,0,.33,0"/>
      <path class="cls-1" d="M20.58,42.45c-.81,1.89-.02,4.04-1.23,6.02-.47.77.49,2.86,1.93,3.73"/>
      <path class="cls-1" d="M14.66,58.47c-1.02,1.21-2.26,2.26-2.79,3.83"/>
    </g>
  </g>
</svg>