<?xml version="1.0" encoding="UTF-8"?>
<svg id="_レイヤー_2" data-name="レイヤー 2" xmlns="http://www.w3.org/2000/svg" viewBox="0 0 28.88 81.01">
  <defs>
    <style>
      .cls-1 {
        fill: none;
        stroke: #fff;
        stroke-linecap: round;
        stroke-linejoin: round;
        stroke-width: 3px;
      }
    </style>
  </defs>
  <g id="_レイヤー_1-2" data-name="レイヤー 1">
    <g>
      <path class="cls-1" d="M2.92,80.01c2.46-3.21.51-6.41.01-9.63-1.34-8.73-2.74-17.42-1.37-26.34.68-4.45.69-5.42,4.56-6.02,2.15-.33-1.58-5.12.63-5.19,1.04-.03,2.33-4.73,3-5.22"/>
      <path class="cls-1" d="M9.74,27.63c.86-5.18-2.34,1.37.33-2.95,1.76-2.85,3.29-5.89,6.43-7.85,1.36-.85,3.04-.71,4.13-1.89"/>
      <path class="cls-1" d="M24.88,41.52c3.61-5.87,4.02-18.19.89-24.01-.97-1.81-.97-4.51-4.04-4.38"/>
      <path class="cls-1" d="M24.88,41.52c-.16.41-.59.71-.99,1.18-3.96-1.57-1.4-8.29-7.11-8.56,4.4-10.99,6.87-21.88,2.03-33.14"/>
      <path class="cls-1" d="M4.66,76.92c2.98-.5,3.08-3.52,4.46-5.34,6.38-8.44,11.87-17.41,14.73-27.74"/>
      <path class="cls-1" d="M3.28,67.48c2-3.83,5.59-12.55,8.32-15.76"/>
      <path class="cls-1" d="M20.03,52.03c-2.11-3.14-1.54-7.06-3.02-10.39"/>
      <path class="cls-1" d="M15.57,42.24c-1.9,2.54-4.79,3.54-7.59,4.43-1.29.41-4.2,3.15-5.37,3.72"/>
      <path class="cls-1" d="M18.04,29.22c-1.9,2.54-4.79,3.54-7.59,4.43-1.29.41-2.39,1.03-3.56,1.61"/>
      <path class="cls-1" d="M13.76,63.62c-1.64-2.68.1-6.2-2.15-8.72"/>
      <path class="cls-1" d="M4.45,74.49c-.37.47,9.67-25.7,11.61-32.77-2.15-2.16,1.62-4.07.24-6.2"/>
    </g>
  </g>
</svg>