<?xml version="1.0" encoding="UTF-8"?>
<svg id="_レイヤー_2" data-name="レイヤー 2" xmlns="http://www.w3.org/2000/svg" viewBox="0 0 849.99 1213.95">
  <defs>
    <style>
      .cls-1 {
        fill: none;
        stroke: #000;
        stroke-linecap: round;
        stroke-linejoin: round;
        stroke-width: 2px;
      }
    </style>
  </defs>
  <g id="_レイヤー_1-2" data-name="レイヤー 1">
    <g>
      <path class="cls-1" d="M497.74,746.94c-8.15,61.49-16.22,123.01-26.76,184.09-1.23,11.19-2.34,22.43-3.79,33.63-.43,3.74-.47,7.88,1,11.15,3.47,7.78,13.74,10.98,21.31,14.64"/>
      <path class="cls-1" d="M813.75,754.95c3.01,18.11,5.47,36.28,8.82,54.29.8,5.31.85,10.71,1.45,16.12,2.47,18.1,4.69,36.25,7.08,54.37,2.66,21.42,5.91,42.78,8.77,64.18.65,7.16,3.07,15.32.08,22.03-4.34,8.64-15.1,11.18-22.91,15.8-6.77,3.91-11.08,10.5-18.78,13.26-2.69.98-5.5,1.69-8.26,2.45"/>
      <path class="cls-1" d="M673.5,155.45c-16.54,58.34-28.61,117.91-39.59,177.53-1.06,5.95-2.09,11.91-3.12,17.87-1.59,8.3-3.23,16.66-1.79,25.1"/>
      <path class="cls-1" d="M543,13.45c-44.52,27.4-64.25,70.72-45.76,120.99,3.79,10.45,17.48,27.82,21.76,38.01"/>
      <path class="cls-1" d="M540,217.95c-.52,5.01-.83,10.33-2.12,15.45-2.7,11.26-4.78,22.64-7.26,33.97-3.99,20.13-5.81,40.59-8.46,60.9-2.53,23.23-3.11,46.56-4.13,69.91-1.1,18.22-1.52,36.43-1.24,54.68-.15,7.86-.97,15.67-.85,23.47.05,8.69,1.42,17.42,1.23,26.07-.36,9.57-2.49,19.04-1.28,28.7.78,9.09,2.84,18.06,4.72,27,1.12,6.43.57,12.94-.62,19.35"/>
      <path class="cls-1" d="M725.25,192.68c11.93,2.16,12.79,4.98,23.17,10.85,14.9,8.63,29.65,18.33,40.38,32,6.81,8.35,11.83,18.11,16.16,27.96,7.03,15.85,13.87,31.71,19.31,48.17,2.06,6.41,3.04,5.27,3.58,11.94"/>
      <path class="cls-1" d="M530,691.45c-1.99,19.42-3.09,38.91-4.19,58.39-2.01,30.5-4.3,60.95-7.17,91.37-3.15,28.21-4.49,56.6-8.6,84.64-.22,2.75-.31,5.53-.37,8.3-.35,15.78-3.23,31.47-2.68,47.3"/>
      <path class="cls-1" d="M612.08,445.55c-2.05,1.5-3.77,3.85-5.29,6.62-19.48,32.63-38.45,65.61-57.5,98.48-8.65,14.16-15.95,29.08-25.28,42.79"/>
      <path class="cls-1" d="M686.5,471.95c-17.5-11.5-43.79-10.44-53.11-19.19-5.35-5.02-11.56-7.52-18.01-10.84-1.08-.55-2.2-1.12-3.41-1.17"/>
      <path class="cls-1" d="M499.5,665.95c-8.72,16.09-18.9,31.45-27.88,47.43-9.19,16.38-19.33,32.18-28.85,48.38-4.07,7.37-8.27,14.61-12.85,21.71-2.75,4.4-5.45,8.81-8.02,13.29-5.09,9.3-9.06,18.88-16.39,26.7"/>
      <path class="cls-1" d="M708.5,179.95c-1.62,5.45-2.9,21.31-4.21,26.79-1.13,4.78-1.7,9.75-2.63,14.66-3.31,17-5.83,34.17-8.89,51.18-1.96,9.56-3.25,19.24-4.73,28.87-1.52,7.66-3.95,15.12-2.55,23"/>
      <path class="cls-1" d="M481.2,660.36c-7.21,8.35-52.02,84.89-70.91,115.44-4.23,6.92-22.63,37.97-27.3,44.64"/>
      <path class="cls-1" d="M521.01,649.7c-6.05,13.51-22.36,4.63-28.01-4.76"/>
      <path class="cls-1" d="M625.79,460.79c-3.02,3.99-6.03,8.09-8.58,12.47-12.53,21.3-25.33,42.43-37.59,63.9-9.91,16.93-20.03,33.72-29.39,50.96-4.58,7.72-9.58,15.21-14.01,22.99"/>
      <path class="cls-1" d="M517,236.45c-7.23,8.82-29.73,44.09-34.55,54.35-16.97,32.71-29.82,67.35-42.01,102.08-6.68,19.97-12.86,40.15-18.02,60.55-.96,4.13-1.75,8.29-2.18,12.5-1.08,9.94.45,20.03,1.26,30.03"/>
      <path class="cls-1" d="M617.98,511.94c-4.21,41.51-7.61,101.32-9.48,143"/>
      <path class="cls-1" d="M281,990.45c-5.46,9.93-12.54,18.75-18.95,28.05-13.5,19.8-25.87,40.38-37.92,61.03-5.17,9.39-12.09,18.05-15.13,28.42"/>
      <path class="cls-1" d="M787,723.45c-.36,13.27,2.16,26.37,3.42,39.56,1.34,11.19,2.22,22.49,3.36,33.67,3.82,58.65,5.83,126.57,10.47,185.16"/>
      <path class="cls-1" d="M828.5,323.45c3.03,6.95,4.25,14.19,5.92,21.67,2.93,10.54,5.53,21.12,7.83,31.84,2.24,8.53,3.98,16.95,5.06,25.66,1.17,8.61,2.29,17.33,1.31,26.03-1.26,15.33-5.13,30.3-9.38,45.07-2.25,8.39-5.24,16.53-8.79,24.46-12.58,28.67-26.52,56.75-44.53,82.38-10.84,15.61-23.26,30.04-38.92,40.89"/>
      <path class="cls-1" d="M605.5,1149.95c-6.21.3-29.64,8.04-35.12,11.02-21.15,10.43-44.11,20.71-68.3,17.82-10.18-.94-19.99-4.89-30.07-6.34"/>
      <path class="cls-1" d="M783,1000.45c-5.17,1.3-10.42,3.05-15.47,4.3-6.32,1.49-12.84,2.31-19.45,3.33-13.8,2.73-27.7,5.25-41.74,6.52-14.58,1.17-29.07,3.42-43.72,3.63-6.84-.01-13.69-.03-20.53.19-21.45.41-42.8-1.86-64.04-4.88-8.38-.96-16.55-2.1-24.67-4.12-4.99-1.35-10.23-2.33-15.09-4.24-3.81-1.58-7.09-4.2-10.29-6.73"/>
      <path class="cls-1" d="M334,950.45c-9.53,21.82-18.09,43.98-27.68,65.77-3.24,6.94-6.68,13.8-9.81,20.79-3.08,6.73-5.5,13.73-8.38,20.54-5.2,11.68-11.94,22.83-18.13,33.9"/>
      <path class="cls-1" d="M784,1125.45c2.79,1.08,5.63,2.13,8.07,3.85,6.66,4.49,7.29,13.72,2.49,19.78-5.16,6.83-13.92,9.31-20.31,14.6-4.23,3.31-7.82,7.58-11.87,11.17-9,7.93-19.06,14.14-30.05,18.4-15.58,6.32-32.71,7.14-49.16,4.4-3.65-.52-7.62-.6-10.97-1.37-3.01-.7-5.62-2.03-8.2-3.33"/>
      <path class="cls-1" d="M574,217.45c-2.74,15.88-4.05,31.93-5.43,47.98-2.12,18.47-3.12,37.01-4.53,55.53"/>
      <path class="cls-1" d="M422.5,497.45c1.73,6.68,1.46,13.48,1.93,20.35,2.6,22.83,8.3,63.72,10.07,86.65"/>
      <path class="cls-1" d="M563.75,323.95c-.62,15.07-2.25,30.09-2.21,45.19-.32,14.71-1.51,29.39-1.02,44.1.52,17.97-1.29,35.95-.88,53.88.5,11.08-.34,22.41-1.64,33.32"/>
      <path class="cls-1" d="M508,993.45c1.1,5.4,1.5,10.88,1,16.38-1.11,14.96-1.53,29.98-3.29,44.91-.41,3.66-.79,7.58.43,11.07,2.33,6.66,9.46,9.93,15.36,12.94,8.83,4.26,17.85,8,27.5,9.71"/>
      <path class="cls-1" d="M735,644.45c1.76,9.02,5.3,17.38,10.03,25.21,6.97,11.98,14.36,24.12,24.47,33.98,16.28,16.48,21.39,2.2,29.73-12,4.95-8.56,7.26-18.56,10.9-27.78,9.47-22.98,15.17-47.22,19.65-71.61,5.38-29.54,8.39-59.51,7.84-89.52-.17-4.03-.92-7.92-1.61-11.79"/>
      <path class="cls-1" d="M740.5,1092.2c-38.27,10.14-129.01,17.56-167.4,6.06-4.2-1.26-8.95-1.86-12.91-3.57-3.15-1.39-4.9-3.76-6.69-6.24"/>
      <path class="cls-1" d="M262,975.45c-17.99,18.82-33.85,39.48-50.12,59.77-6.85,8.44-11.89,18.05-18.1,26.97-6.83,9.87-15.22,18.62-20.78,29.26"/>
      <path class="cls-1" d="M739.5,316.45c-4.56,18.02-8.83,36.16-10.73,54.65-.6,7.58-1.01,15.36.23,22.85"/>
      <path class="cls-1" d="M664.5,166.45c-9.85,19.54-24.5,35.89-38.34,52.66-6.5,7.63-12.07,16.24-19.66,22.84"/>
      <path class="cls-1" d="M654.5,375.95c.06,1.14,3.67,1.99,4.42,3.02,2.99,3.98,9.87,7.69,14.08,11.48"/>
      <path class="cls-1" d="M711,290.45c-7.35,6.08-11.97,14.26-16.79,22.33-12.2,18.1-22.76,37.26-34.07,55.83-1.35,2.15-5.76,4.94-5.64,7.34"/>
      <path class="cls-1" d="M704,420.95c1.41,9.96,5.71,26.25,7.98,36.04,3.52,16.04,5.52,32.37,7.95,48.61,2.63,20.61,3.64,41.48,6.18,62.07,1.05,9.43,3.44,18.76,3.38,28.28"/>
      <path class="cls-1" d="M345,977.45c-7.93,23.36-16.69,46.54-24.98,69.74-1.94,5.94-3.76,11.95-6.15,17.73-6.64,15.55-15,30.24-22.44,45.47-5.74,11.28-10.97,22.83-17.15,33.88-11.86,20.81-27.25,39.44-45.27,55.18"/>
      <path class="cls-1" d="M824,1031.95c2.07,7.68,3.08,16.54-.66,23.85-3.45,5.82-10.29,8.85-16.03,12.05-15.13,8.1-31.25,13.9-47.69,18.62-6.36,2.14-12.59,4.53-19.13,5.73"/>
      <path class="cls-1" d="M803,686.95c1.76,4.44,3.03,9.05,3.47,13.83,1.3,11.08,3.1,22.1,4.89,33.11.55,4.53,1.53,12.62,1.82,17.14"/>
      <path class="cls-1" d="M377.5,909.95c-1.79,7.24-5.01,14.13-7.62,21-2.24,6.61-4.56,12.85-6.62,19.6-3.62,14.65-7.78,29.19-11.94,43.7-3.05,12.94-5.1,26.19-7.9,39.23-2.27,8.42-3.96,17.1-6.58,25.37-1.41,4.28-2.42,8.72-3.35,13.1"/>
      <path class="cls-1" d="M670,466.51c-1.63,10.44-3.51,31.79-3.83,42.39-2.1,26.52-3.87,53.13-6.67,79.55"/>
      <path class="cls-1" d="M296,1075.45c-3.99,11.51-8.88,22.72-14.93,33.27-6.31,10.07-13.19,19.82-18.07,30.73"/>
      <path class="cls-1" d="M659,73.45c-2.47-9.18-4.95-18.16-9.64-26.52-6.37-12.77-14.24-25.46-26.67-33.09-11.3-7.33-24.72-11.7-38.11-12.81-14.74-.34-29.84,3.37-41.58,12.42"/>
      <path class="cls-1" d="M349,1000.95c-2.84,3.31-5.27,7.03-6.77,11.19-4.13,10.5-9.63,20.44-14.49,30.57-2.35,5.33-5.26,10.44-9.73,14.24"/>
      <path class="cls-1" d="M272,1065.45c-8.93,20.43-20.31,42.9-37.5,57.5"/>
      <path class="cls-1" d="M223,1114.45c-2.79,4.36-5.44,8.83-7.98,13.35-9.34,15.72-19.65,30.99-31.03,45.32-6.17,7.02-13.52,12.7-20.49,18.84"/>
      <path class="cls-1" d="M304,938.45c-11.47,15.38-22.62,31.03-32.98,47.14-2.1,3.24-3.61,6.84-5.02,10.36"/>
      <path class="cls-1" d="M465.5,594.45c8.79,14.45,3.59,19.25,4.48,33.78.36,5.83,2.86,11.17,5.38,16.33,1.31,2.68,2.67,5.34,3.78,8.11,1.69,4.23,2.06,6.41,6.16,8.87,3.26,1.96,6.89,3.49,10.65,4.13,7.26,1.24,11.4.98,12-6.89"/>
      <path class="cls-1" d="M686.5,471.95c-1.25,11.88,4.05,29.54,5.94,41.13,1.31,11.51,5.86,22.14,8.57,33.35,1.39,5.64,2.07,11.4,2.89,17.14.95,7.14,3.56,13.94,5.74,20.81,3.05,10.61,21.2,49.98,25.37,60.08"/>
      <path class="cls-1" d="M711.5,292.2c17.95,6.97,7.13,17.4.95,28.77-6.71,11.12-13.5,22.11-20.36,33.12-8.98,14.02-5.39,18.65-7.6,33.37"/>
      <path class="cls-1" d="M325,885.45c-5.62,5.44-9.93,11.83-14.52,18.03-3.13,3.97-7.37,7.87-6.87,12.61.43,3.86,3.65,7.24,6.55,9.78,13.38,11.14,31.03,19.3,48.84,18.58"/>
      <path class="cls-1" d="M560.11,575.2c.19,10.31-4.01,26.86.31,36.2,8.72,18.88,10.31,40.8,13.58,44.54"/>
      <path class="cls-1" d="M369.5,804.95c-4.72,8.51-7.76,17.72-11.79,26.47-6.01,10.14-11.9,20.09-19.07,29.61-2.56,3.63-4.82,7.44-7.68,10.75-1.94,2.32-4.51,4.92-5.67,7.49-2.81,5.57,2.72,10.67,6.83,13.92,9.6,7.51,20.74,12.19,33.14,14.57,4.73.83,15.82,3.05,18.23-2.06-.12-3.93-7.69-4.9-10.93-5.8-15.41-3.48-30.26-10.83-41.05-22.45"/>
      <path class="cls-1" d="M232,1080.45c-6.4,10.46-14.58,19.58-22.6,28.79-8.98,9.99-16.84,20.88-25.67,30.96-5.12,5.88-11.37,11.12-14.73,18.25"/>
      <path class="cls-1" d="M284,1010.45c-7.52,13.47-14.69,27.2-23.18,40.1-10.8,14.36-21.94,28.53-31.32,43.9"/>
      <path class="cls-1" d="M324,1057.45c-4.64,19-9.67,37.94-17.52,55.91-1.42,3.72-2.6,7.51-3.9,11.28-3.17,9.43-8.2,17.97-12.58,26.81"/>
      <path class="cls-1" d="M659.61,597.95c-.95,10.83-2.54,21.64-3.01,32.5-.12,2.37-.61,4.74-1.1,6.99"/>
      <path class="cls-1" d="M330.5,1081.45c-3.92,12.01-7.17,24.25-11.83,36.01-4.23,9.34-7.16,19.25-11.04,28.68-4.25,8.95-9.57,17.26-13.63,26.31"/>
      <path class="cls-1" d="M632,236.45c-10.82,13.53-17.62,29.91-29,43"/>
      <path class="cls-1" d="M343.5,948.45c-4.48,15.24-8.7,30.58-15.5,45"/>
      <path class="cls-1" d="M543.65,601.86c2.27,1.9,8.2,6.35-5.15,16.6"/>
      <path class="cls-1" d="M776,1082.45c1.49,8.03,2.39,15.98,2.13,24.24.02,2.59.24,5.19.97,7.69,1.44,5.21,4.88,10.29,5.56,15.61,1.38,8.02-5.66,13.55-11.67,17.46"/>
      <path class="cls-1" d="M687,1172.45c4.37,6.02,9.7,8.48,17.31,8.29,8.53.08,16.69-2.63,24.69-5.29"/>
      <path class="cls-1" d="M135.5,1156.95c-10.63,7.85-22.06,14.61-33.88,20.46-5.68,2.54-11.79,3.88-17.62,6.04"/>
      <path class="cls-1" d="M179,1054.45c-14.81,11.52-27.7,25.34-43.05,36.21-4.89,3.72-9.48,7.88-14.89,10.8-6.53,3.38-13.06,6.7-19.06,10.99"/>
      <path class="cls-1" d="M259,968.45c-3.1,2.2-6.21,4.39-8.92,6.95-4.47,4.14-7.76,9.42-11.91,13.86-8.21,8.26-17,16.03-24.31,25.13-4.94,5.64-9.82,11.39-15.22,16.61-3.44,3.27-6.63,6.79-9.64,10.45"/>
      <path class="cls-1" d="M818,981.95c.96,2.93,1.94,5.87,2.48,8.88,1.01,5.81.39,11.75,1.1,17.6,1.44,10.73,5.04,12.92,2.42,23.52"/>
      <path class="cls-1" d="M357,837.95c4.12,5.27,9.14,9.48,15,12.63,7.54,3.98,17.07,9.87,25.62,7.6,4.86-1.49,7.71-6.04,10.39-10.07,3.29-5.15,6.96-10.06,11-14.66"/>
      <path class="cls-1" d="M562,1145.45c-17.08-8.51-37.22-11.59-56-8"/>
      <path class="cls-1" d="M506,566.45c-8.68,4.45-18.47,6.85-26.16,13.1-10.81,8.55-19.59,19.65-26.99,31.26-4.53,7.22-8.7,14.72-14.35,21.15"/>
      <path class="cls-1" d="M253,1084.45c-6.87,10.67-11.83,22.3-17.12,33.79-8.74,18.52-21.88,34.15-34.64,49.97-4.06,5.08-8.31,9.99-12.75,14.74"/>
      <path class="cls-1" d="M259,1135.45c-6.38,14.5-14.95,27.83-23.02,41.43-3.94,6.56-8.45,12.76-12.99,18.91-5.02,7.05-11.35,13.05-18.99,17.15"/>
      <path class="cls-1" d="M755.31,267.95c-.52,2.95-5.2,15.88-6.58,18.58-2.69,5.64-7.34,24.03-9.24,29.92"/>
      <path class="cls-1" d="M137.5,1096.95c-12.6,9.85-23.01,22.08-35.5,32"/>
      <path class="cls-1" d="M769,401.45c-13.75-.59-37.51-.24-51.05,1.93-5.6.81-11.3.99-16.75,2.51-4,1.13-7.86,2.8-11.7,4.56"/>
      <path class="cls-1" d="M434.5,604.45c1.2,10.94-4.23,33.3,5.5,40.13,8.98,5.9,20.05,5.78,30.5,5.37"/>
      <path class="cls-1" d="M776,330.45c-14.45,17.27-27.7,35.73-38.99,55.19-3.48,4.91-7.14,9.34-9.51,14.81"/>
      <path class="cls-1" d="M262,1099.45c-14.25,20.72-25.17,43.56-39.98,63.91-3.4,4.65-6.82,9.31-10.02,14.09"/>
      <path class="cls-1" d="M318,943.45c-7.12,11.6-13.62,23.56-21,35"/>
      <path class="cls-1" d="M537,1086.45c-2.68,11.2-10.77,16.58-19.67,23.1-11.87,8.58-9.3,15.61-14.1,26.9-2.32,5.07-8.12,7.75-10.47,12.76-3.32,8.89,8.24,11.91,15.24,12.24"/>
      <path class="cls-1" d="M163,1094.95c-3.89,5.18-7.58,10.57-12.47,14.85-5.25,4.45-10.91,8.41-16.22,12.78-7.39,5.71-15.73,10.12-22.31,16.87"/>
      <path class="cls-1" d="M710.5,1099.95c.96,9.4-2.91,15.74-8.85,22.92-2.03,2.54-4.19,5.01-6.78,6.98-3.77,2.98-8.52,5.13-10.32,8.84-2.95,7.34,2.82,14.87,5.95,21.26"/>
      <path class="cls-1" d="M519,172.45c2.58,9.34,9.38,16.37,16.35,22.73,7.31,6.64,22.1,18.03,32.15,19.27"/>
      <path class="cls-1" d="M802,413.95c-6.75-5.67-14.95-8.74-23.09-11.58-3.2-1.14-6.54-1.41-9.91-.92"/>
      <path class="cls-1" d="M603.5,1104.45c1.13,14.62,8.9,26.36-9.47,33.31-8.89,3.07-18.01,5.99-27.13,7.95-3.73.81-7.43,1.7-11.01,3.03-8.95,3.42-17.34,8.73-26.83,10.59-6.55,1.51-13.52,2.33-20.07,2.62"/>
      <path class="cls-1" d="M315,971.45c-3.91,8.82-8.42,17.26-11.3,26.47-4.04,10.48-9.68,20.27-15.2,30.03"/>
      <path class="cls-1" d="M470,419.45c1.34,6.3,4.5,11.85,8.4,16.92,7.62,10.52,19.37,35.52,24.6,47.33"/>
      <path class="cls-1" d="M222,1059.45c-3.76,4.74-7.46,9.54-11.26,14.25-9.96,12.45-22.09,23.08-31.4,36.04-5.07,7-10.09,14.08-15.78,20.58-7.41,8.96-16.28,16.29-25.56,23.14"/>
      <path class="cls-1" d="M730,1140.95c-13.74,1.88-28.37,7.53-35,20.5"/>
      <path class="cls-1" d="M234,1178.95c-4.22-.08-6.83,1.88-9.23,5.09-3.76,4.57-8.3,8.59-12.74,12.53-2.95,2.73-6.28,4.92-10.03,6.39"/>
      <path class="cls-1" d="M652.5,497.95c2.09-4.08,3.2-11.78-3.62-9.91-1.97.73-4.14,2.01-4.87,4.07-.97,4.44,4.3,6.53,8.48,6.35"/>
      <path class="cls-1" d="M671,96.45c.26-6.9-4.73-10.54-11.11-10.95-8.73-.41-14.69,8.54-16.39,16.45"/>
      <path class="cls-1" d="M294.5,924.95c-3.28,6-7.96,10.92-12.56,15.9-5.16,5.7-9.72,12.04-15.58,17.04-5.56,4.6-11.55,8.97-14.86,15.56"/>
      <path class="cls-1" d="M238,1014.45c-8.24,9.91-16.65,19.68-25,29.5"/>
      <path class="cls-1" d="M133,1173.45c-9.9,4.14-18.8,10.64-29,14"/>
      <path class="cls-1" d="M370,1193.45c-7.98-.09-15.93,1.59-23.9.95-1.74-.12-3.46.18-5.1.55"/>
      <path class="cls-1" d="M176,1084.45c-14.48,9.63-28.66,19.8-42,31"/>
      <path class="cls-1" d="M504.5,665.95c-1.25,7.01-.49,14.11-1.13,21.14-.64,5.44-6.26,54.37-5.62,59.86"/>
      <path class="cls-1" d="M209,1180.45c-7.03,9.7-16.54,16.87-26,24"/>
      <path class="cls-1" d="M661.5,141.45c5.61,1.27,11.66,1.11,16.88,3.76,4.03,2.04,6.82,5.59,9.01,9.2,2.05,3.22,1.86,6-1.38,8.53"/>
      <path class="cls-1" d="M394.5,868.95c-1.52,9.57-4.89,18.55-10.58,26.35-1.37,1.92-2.45,4.03-3.42,6.15"/>
      <path class="cls-1" d="M560.5,493.45c1.3,3.88.73,7.72-.32,11.55-1.27,7.03-1.67,14.5.32,21.45"/>
      <path class="cls-1" d="M670.74,94.27c1,6.17,2.47,12.06.35,17.76-2.64,7.95-6.46,15.67-9.69,23.44"/>
      <path class="cls-1" d="M686.5,471.95c7.09,1.76,13.73,5.17,20.61,7.37,2.39.85,4.87,1,7.39.63"/>
      <path class="cls-1" d="M401.5,861.45c-4.92,7.25-10.83,7.56-18.47,4.73-11.34-4.18-21.72-10.4-31.03-18.23"/>
      <path class="cls-1" d="M507,492.45c-.17,7.05,1.61,13.76,4.12,20.28.83,2.34,2.18,4.43,3.88,6.22"/>
      <path class="cls-1" d="M497,1123.95c-6.01,2.12-12.05,4.19-16.34,8.71-2.4,2.49-4.42,5.37-7.03,7.66-10.11,7.8-13.24,18.14-1.63,32.14"/>
      <path class="cls-1" d="M681,235.45c-2.07,1.27-4.05,3.29-6.62,3.22-1.77-.06-3.81-1.36-5.87-.83-5.25,1.38-4.68,7.57-.01,9.89.8.46,1.66.84,2.5,1.22"/>
      <path class="cls-1" d="M354,1173.45c-3.55-1.01-7.09-.77-10.63.03-5.42,1.05-10.93.83-16.37,1.47"/>
      <path class="cls-1" d="M731,1140.45c12.14-1.48,24.47-1.08,36,3.06,3.2.9,9.42,4.94,4.56,7.72-2.87,1.42-6.72,1.13-9.93.71-9.48-1.54-19.1-2.64-28.63-2.49"/>
      <path class="cls-1" d="M286,975.45c-3.24,3.58-6.3,7.31-9.47,10.95-5.62,6.41-12.32,11.83-17.78,18.4-4.99,5.91-8.95,12.59-13.75,18.65"/>
      <path class="cls-1" d="M259,1168.95c-.44,2.89-1.48,5.52-3.19,7.87-4.25,6.27-8.44,13.09-14.81,17.63"/>
      <path class="cls-1" d="M291,1156.45c-2.93,5.94-6.3,11.65-9.16,17.62-1.94,4.27-4.74,8.02-7.34,11.88"/>
      <path class="cls-1" d="M275,1162.45c-4.59,8.18-10.25,15.72-14.91,23.87-4.25,6.92-9.91,13.15-14.09,20.13"/>
      <path class="cls-1" d="M499.93,334.69c-.48,17.11,1.57,54.91,3.89,71.81.87,6.61,3.13,33.91,3.11,40.54"/>
      <path class="cls-1" d="M309,908.95c5.56,8.59,13.87,14.17,23,18.5"/>
      <path class="cls-1" d="M276,1031.45c-2.94,9.03-9.09,16.44-13,25"/>
      <path class="cls-1" d="M704.5,554.95c2.4,3.17,4.69,6.49,6.31,10.15,2.02,4.59,4.3,9.04,6.55,13.6,2.97,6.57,6.5,12.55,11.19,17.91,4.76,5.28,7.09,12.58,12.19,17.4,1.61,1.49,3.44,2.72,5.27,3.93"/>
      <path class="cls-1" d="M592.5,216.95c2.39,5.34,5.23,10.47,8.47,15.34,3.13,4.88,7.13,9.52,4.2,14.84-2.78,4.74-6.97,8.96-10.17,13.32"/>
      <path class="cls-1" d="M661.4,135.47c-1.86,3.68-2.12,5.28-2.62,9.49-.28,3.17,1.66,6.97,2.63,10.26,1.4,4.57,3.35,9.1,7.58,11.72"/>
      <path class="cls-1" d="M299,1047.95c.42,3.16-1.1,5.75-2.37,8.51-2.17,5.31-4.26,10.73-6.63,15.99"/>
      <path class="cls-1" d="M383,820.45c-2.94,3.13-4.72,7-6.49,10.86-2.13,4.08-4.06,8.23-6.51,12.14"/>
      <path class="cls-1" d="M391.5,824.45c-3.85,8.36-8.6,16.22-13.5,24"/>
      <path class="cls-1" d="M325,940.45c-5.45,7.54-8.96,16.21-14,24"/>
      <path class="cls-1" d="M607.5,1128.45c4.61,3.47,8.09,9.59,5.45,14.94-1.51,3.06-4.75,4.66-7.45,6.56"/>
      <path class="cls-1" d="M362.5,860.95c-4.86,7.82-9.09,16.02-14.5,23.5"/>
      <path class="cls-1" d="M647.5,564.45c1.82-1.49,3.61-3.11,4.35-5.38,1.1-3.24.42-7.98-2.67-9.81-2.41-1.62-5.34-1.07-7.18,1.19"/>
      <path class="cls-1" d="M559.44,652.69c1.82-1.49,3.61-3.11,4.35-5.38,1.1-3.24.42-7.98-2.67-9.81-2.41-1.62-5.34-1.07-7.18,1.19"/>
      <path class="cls-1" d="M662,322.45c1.69,3.02,4.28,5.62,5.19,9.03,1,3.6-.44,7.3-3.81,9.11-1.65.89-3.32,1.85-4.88,2.86"/>
      <path class="cls-1" d="M683,1145.45c-5.01,2.09-9.89,4.66-13.42,8.84-3.79,4.35-6.8,9.85-4.87,15.2,2.8,7.86,12.04,8.82,19.29,7.96"/>
      <path class="cls-1" d="M586,186.45c-7.14,7.81-12.69,6.12-22,6"/>
      <path class="cls-1" d="M399,830.45c-1.64,6.07-5.53,11.11-8.64,16.39-1.18,2.08-2.62,3.94-4.36,5.61"/>
      <path class="cls-1" d="M630.5,605.95c-3.51-.93-8.26.51-8.51,4.61-.06,2.56,3.26,5.27,5.94,5.97,1.78.47,3.5-.25,5.07-1.07"/>
      <path class="cls-1" d="M692.5,1133.45c.32,5.07,1.75,10.02,2.02,15.1.02,2.65.28,5.24,1.98,7.4"/>
      <path class="cls-1" d="M634.5,649.45c-.87-2.73-1.55-6-4.03-7.75-3.29-2.6-12.55.66-9.47,5.75"/>
      <path class="cls-1" d="M548.5,364.95c1.49,2.79,2.96,5.78,2.21,8.96-1.17,4.44-5.3,9.14-8.71,12.54"/>
      <path class="cls-1" d="M620.5,472.95c3.72,7.38-4.87,14.05-2,21.5"/>
      <path class="cls-1" d="M407,1168.95c-5.84-.11-11.68.55-17.5.54-1.25,0-2.43.45-3.5.96"/>
      <path class="cls-1" d="M309,1026.45c-3.4,7.85-6.89,15.67-12.28,22.36-2.11,3.05-4.21,5.94-7.22,8.14"/>
      <path class="cls-1" d="M165,1160.45c-3.04,2.52-4.74,6.1-7.5,8.89-5.3,4.59-10.89,8.88-16.5,13.11"/>
      <path class="cls-1" d="M405,832.45c-4.07,6.63-7.83,13.44-12,20"/>
      <path class="cls-1" d="M641.5,173.95c-3.42,7.25-7.8,13.87-13.5,19.5"/>
      <path class="cls-1" d="M546.5,205.45c-2.97,4.49-4.44,10.16-9.42,12.93-7.85,4.68-14.83,10.52-20.08,18.07"/>
      <path class="cls-1" d="M654.5,375.95c-10.01-6.26-22.66-5.96-27.46,5.89-1.04,2.03-2.17,4.04-3.5,5.91-1.93,2.82-4.42,5.27-5.15,8.57-.56,2.32-.47,4.74-.4,7.13"/>
      <path class="cls-1" d="M549,167.45c-2,4.07.07,9.85,4.39,11.33,2.21.53,4.45-.38,6.61-.83"/>
      <path class="cls-1" d="M351,908.45c-3.02,6.32-6.54,12.41-9,19"/>
      <path class="cls-1" d="M722,1150.45c-8.09,1.45-15.34,5.79-23.5,7"/>
      <path class="cls-1" d="M521,590.45c3.56,5.14,6.56,10.6,9.69,16.01"/>
      <path class="cls-1" d="M554,293.45c1.32,3.34.9,7.66-2.78,9.11-2.14.78-4.32-.66-6.67-1.13-3.45-.69-7.75.61-9.58,3.66-.62,1.04-1.04,2.21-1.47,3.35"/>
      <path class="cls-1" d="M20,1155.95c-6.34-.04-12.66.73-19,.5"/>
      <path class="cls-1" d="M631,406.95c-3.59-1.11-7.11-3.35-10.97-3.08-4.11.39-8.02,4.5-8.77,8.71-.46,2.8.15,5.61.74,8.36"/>
      <path class="cls-1" d="M502,629.45c3.75,5.31,6.92,10.79,11.26,15.87,10.64,12.46,20.08-3.57,16.55-9.53"/>
      <path class="cls-1" d="M375.5,815.95c-4.23,5.59-6.66,12.17-9.5,18.5"/>
      <path class="cls-1" d="M384,870.45c-3.9,5.42-5,12.14-8,18"/>
      <path class="cls-1" d="M334.5,899.95c-3.75,6.02-7.48,12.06-10.5,18.5"/>
      <path class="cls-1" d="M344,904.45c-2.9,6.24-7.6,11.49-10,18"/>
      <path class="cls-1" d="M57,1183.45c-5.99.48-12.03.21-18,1"/>
      <path class="cls-1" d="M634,547.45c-.74.83-1.51,1.62-2.48,1.97-1.73.68-3.95-.07-5.54,1.04-3.95,3.47.72,8.04,5.01,7.99"/>
      <path class="cls-1" d="M96.5,1114.45c-5.71,2.22-11.53,4.11-17.5,5.5"/>
      <path class="cls-1" d="M551,1032.45c-.87,8.76.11,17.54-.42,26.33-.59,6.26-1.09,12.47.42,18.67"/>
      <path class="cls-1" d="M190,1102.45c-3.16,4.84-7.44,8.8-11.23,13.08-1.13,1.38-2.59,2.34-4.27,2.92"/>
      <path class="cls-1" d="M379,809.95c12.53,6.49,24.5,14.39,38.5,17.5"/>
      <path class="cls-1" d="M665,293.45c.3,2.75,1.52,9.22,5.29,8.5,3.19-.96,5.76-3.65,7.21-6.5"/>
      <path class="cls-1" d="M663.5,1164.45c-5.12,1.55-7.08,6.23-11.09,9.7-6.64,5.73,5.94,22.27,11.59,18.8"/>
      <path class="cls-1" d="M547,252.45c-3.7,1.83-6.38,4.53-6.55,8.54-.24,2.31,1.12,3.6,3.55,2.96"/>
      <path class="cls-1" d="M509.5,1114.95c-12.95,1.21-12.54,16.99-9.5,26.5"/>
      <path class="cls-1" d="M587,233.45c.09,1.32.2,2.64.49,3.92.58,2.94,2.6,5.45,3.43,8.32.5,1.7.59,3.49.86,5.24.37,2.83,1.53,5.43,2.73,8.02"/>
      <path class="cls-1" d="M144,1129.45c-9.55,10.2-21.55,17.7-31,28"/>
      <path class="cls-1" d="M366,913.45c-1.91,6.01-5.54,11.24-8,17"/>
      <path class="cls-1" d="M550,346.45c1.92-3.07,4.79-9.03.8-11.53-1.91-.84-4.86.88-7.48,1.68-3.77,1.26-7.69.06-11.32-1.16"/>
      <path class="cls-1" d="M354,857.45c-3.86,5.01-6.98,10.47-10,16"/>
      <path class="cls-1" d="M329,895.45c-4.18,4.42-6.35,10.21-10,15"/>
      <path class="cls-1" d="M516,620.45c19.66,25.99,33.12,17.39,14.69-13.99"/>
      <path class="cls-1" d="M581,115.45c-7.96-1.52-15.47,1.51-23,3.5"/>
      <path class="cls-1" d="M646.5,594.95c1.4,4.12,0,8.72-4.39,10.32-1.58.61-3.26,1.16-4.61,2.18"/>
      <path class="cls-1" d="M96,1148.45c-5.16,2.7-10.77,4.32-16.07,6.78-3.29,1.53-6.09,3.72-9.48,4.37-2.11.43-4.29.37-6.44.36"/>
      <path class="cls-1" d="M670,289.45c2.28-.15,4.65-.8,5.86-2.88,2.09-3.67,1.63-7.5-2.86-8.12"/>
      <path class="cls-1" d="M244,980.95c-5.9,2.3-9.84,7.91-12.5,13.5"/>
      <path class="cls-1" d="M647,518.45c-3.99-6.58-7.05-8.42-14.15-4.29-5.54,3.15-4.79,12.01,2.15,12.79"/>
      <path class="cls-1" d="M560.5,262.45c.28,2.65-1,4.81-3.06,6.34-.45.36-.98.68-1.53.76-1.45.2-3.39-1.4-3.78-2.96-.17-.66-.15-1.44-.13-2.14"/>
      <path class="cls-1" d="M537.5,347.95c-4.89,2.48-9.91,5.11-9.5,11.5"/>
      <path class="cls-1" d="M652.5,333.95c-1.55-.36-3.27-.61-4.65.3-1.77,1.06-2.92,3.45-1.89,5.25.86,1.49,2.55,2.21,4.05,2.95"/>
      <path class="cls-1" d="M332.5,928.45c6.52,2.66,13.17,4.99,19.91,6.9,4.6,1.47,9.27,1.16,14.09.6"/>
      <path class="cls-1" d="M595.5,261.45c2.32,3.45,2.07,7.66,3.72,11.44,3.11,7.21,29.2,70.47,31.57,77.96"/>
      <path class="cls-1" d="M684,370.45c-4.4,2.49-6.11,7.37-8.53,11.45-1.29,2.04-2.74,3.97-3.97,6.05"/>
      <path class="cls-1" d="M662.5,99.95c-4.14-1-7.66.02-9.11,4.49-.75,2.03-.71,4.49-2.39,6.01"/>
      <path class="cls-1" d="M358,915.45c-2.8,4.43-4.56,9.39-7,14"/>
      <path class="cls-1" d="M525,126.95c-5.1-1.06-10.27-.55-14,3.5"/>
      <path class="cls-1" d="M708.5,179.95c.78-4.85-2.03-6.25-5.56-8.5-4.74-3.41-7.7-8.72-12.94-11.5"/>
      <path class="cls-1" d="M610,209.45c-3.82,1.34-7.46,3.14-11.22,4.63-9.93,3.49-21.21,3.39-31.28.37"/>
      <path class="cls-1" d="M535,152.45c-3.8,3.14-8.46,3.39-13,2"/>
      <path class="cls-1" d="M641.5,219.95c-2.73,4.03-5.15,8.25-7.5,12.5"/>
      <path class="cls-1" d="M636.5,609.2c-.36,4.96,1.44,6.7,5.39,9.4,1.8,1.54,3.74,2.87,6.11,3.35"/>
      <path class="cls-1" d="M105,1169.45c-4.18,3.12-8.83,5.73-12,10"/>
      <path class="cls-1" d="M312,1199.45c-5.65.67-11.31,1.11-17,1"/>
      <path class="cls-1" d="M539.25,644.63c23.53,31.82,117.68,8,114.75-7.18"/>
      <path class="cls-1" d="M537.5,428.95c-3.26,1.88-9.26,6.63-10.5.5"/>
      <path class="cls-1" d="M692,189.95c1,.77,2.03,1.52,2.71,2.58,1.77,2.64-.23,6.88-3.21,8-3.98,1.43-7.06-.84-7-5.08"/>
      <path class="cls-1" d="M535,512.45c-4.39,1.55-8.45,3.62-8,9"/>
      <path class="cls-1" d="M370,803.45c1.02.71,2.36.97,3.65.92,5.18.02,9.81,2.13,14.35,4.58"/>
      <path class="cls-1" d="M364.5,878.95c-3.55,3.1-5.44,7.39-7.5,11.5"/>
      <path class="cls-1" d="M648,520.45c.4,1.03.57,2.11.86,3.14.37,1.07.96,2.06.66,3.05-1,2.33-3.33,3.72-5.52,4.81"/>
      <path class="cls-1" d="M373,879.45c-2.58,3.35-4.48,7.07-6,11"/>
      <path class="cls-1" d="M685,184.95c-4.59-.95-8.65-.11-10,5"/>
      <path class="cls-1" d="M372,866.45c-1.22,5.31-5.9,9.3-6,15"/>
      <path class="cls-1" d="M663.5,346.45c1.53,6.44-1.34,6.7-6.5,8"/>
      <path class="cls-1" d="M555,251.45c-3.6,2.84-2.6,7.14-2.5,11"/>
      <path class="cls-1" d="M545.5,535.95c1.73,4.06-.01,7.66-3.5,10"/>
      <path class="cls-1" d="M503,568.95c4.53,3.18,15.1,8.32,17.16,9.16,3.28,1.37,6.05,3.62,8.84,5.84"/>
      <path class="cls-1" d="M709.5,180.95c2.83,3.12,7.1,2.85,10.76,4.31,1.7.62,2.75,1.91,3.24,3.69"/>
      <path class="cls-1" d="M548,436.45c.68,2.65.51,5.34-.75,7.5-1.54,3.05-3.23,3.77-6.25,2.5"/>
      <path class="cls-1" d="M147.5,1187.45c-2.86,3.1-5.97,6.11-10.5,6"/>
      <path class="cls-1" d="M209.5,1048.45c-1.94,1.98-3.9,3.99-5.66,6.1-1.23,1.58-2.75,2.78-4.84,2.9"/>
      <path class="cls-1" d="M681,388.95c6.37,7.39,4.88,18.08,9.35,26.36,3.05,4.52,9.58,5.37,13.65,9.14"/>
      <path class="cls-1" d="M555,223.45c-4.77.08-7.69.43-8.5,6"/>
      <path class="cls-1" d="M540.5,482.45c.31,2.88,1.6,5.32,4.27,6.6,1.05.5,1.95,1.24,2.23,2.4"/>
      <path class="cls-1" d="M493,992.95c4.53,2.92,9.68,3.63,15,3"/>
      <path class="cls-1" d="M551,267.95c-2.19,3.64-6.23,4-10,4.5"/>
      <path class="cls-1" d="M621,629.45c-3.29,2.09-6.26,5.11-10.5,5"/>
      <path class="cls-1" d="M641.5,487.45c.63-2.37,2.67-4.29,2.96-6.75.09-2.14-1.36-5.01-3.54-5.49-1.3-.28-2.63.06-3.93.24"/>
      <path class="cls-1" d="M662,281.95c-1.48.39-2.95.82-4.46,1.1-2.17.29-3.91.95-4.04,3.4"/>
      <path class="cls-1" d="M542,524.45c3.82-1.95,7.73-5.78,4.37-10.03-1.63-1.69-4.19-1.59-6.37-1.97"/>
      <path class="cls-1" d="M530,435.45c-2.6,3.11-3.74,6.61-1,10"/>
      <path class="cls-1" d="M621,423.45c-8.43-4.63-12.97-1.43-14.5,7.5"/>
      <path class="cls-1" d="M664,259.45c-3.09,1.31-7.53.72-8.5,5"/>
      <path class="cls-1" d="M155,1196.45c-4.83,3.11-9,7.62-15,8.5"/>
      <path class="cls-1" d="M548.5,234.95c4.03,3.84,5.09,4.17,9.5.5"/>
      <path class="cls-1" d="M550,452.45c2.22,3.67-1.47,5.39-3,8"/>
      <path class="cls-1" d="M582.68,1140.71c-7.89-11.93-79.56-19.49-76.68-3.26"/>
      <path class="cls-1" d="M539,387.45c-3.15,1.4-6.69,2.66-7.5,6.5"/>
      <path class="cls-1" d="M540,408.45c1.77,3.8,5.38,2.17,8.5,2.5"/>
      <path class="cls-1" d="M303,918.95c-1.8,2.96-4.46,5.23-6.5,8"/>
      <path class="cls-1" d="M684.5,236.95c3.8,5.93,2.17,9.11-4.5,12"/>
      <path class="cls-1" d="M92,1145.45c-2.11,2.46-6.55,2.59-7,6.5"/>
      <path class="cls-1" d="M337,1066.45c-.3,4.81-5.86,7.33-5.89,12.26-.05.8.15,1.58.89,1.74"/>
      <path class="cls-1" d="M311,989.45c-1.4,2.67-2.49,5.69-5.5,7"/>
      <path class="cls-1" d="M307.5,1143.95c-2.47,1.87-2.9,5.06-4.5,7.5"/>
      <path class="cls-1" d="M686,218.45c-2.6,1.57-3.67,4.13-2.5,7"/>
      <path class="cls-1" d="M534,474.95c-5.43,1.39-1.97,3.17-1,6.5"/>
      <path class="cls-1" d="M761.63,1151.94c-.93,1.88-24.02,20.51-32.63,23.51"/>
      <path class="cls-1" d="M559,231.45c2.3-3.44,5.4-5.06,4.37.97-.29,1.89-1.71,3.21-3.37,4.03"/>
      <path class="cls-1" d="M126,1189.45c-4.19,3.04-7.8,7.11-13,8.5"/>
      <path class="cls-1" d="M637,590.45c-5.05-3.64-9.17-.53-13,3"/>
      <path class="cls-1" d="M266.5,958.95c.33,2.88-.53,5.43-2.5,7.5"/>
      <path class="cls-1" d="M640,389.95c-2.29-.95-4.65-1.72-7-2.5"/>
      <path class="cls-1" d="M176,1153.45c-2.04,1.99-3.78,4.32-6.5,5.5"/>
      <path class="cls-1" d="M653,322.45c-5.16.63-7.46,3.52-8,9"/>
      <path class="cls-1" d="M527.5,399.45c-.13-2.73,1.64-6.04,4.73-4.81,2.27,1,3.16,3.86,5.77,4.31"/>
      <path class="cls-1" d="M204.5,1162.45c-2.88-.98-4.38,1.82-6.5,3"/>
      <path class="cls-1" d="M585,142.45c-4.79,3.25-10.36,4.21-16,3"/>
      <path class="cls-1" d="M653,498.45c2.19.84,3.91,2.48,6,3.5"/>
      <path class="cls-1" d="M497,1123.95c-34.95,11-25.45,42.04,3,17.5"/>
      <path class="cls-1" d="M288,1183.45c-.62,3.44-1.59,6.86-5,8.5"/>
      <path class="cls-1" d="M530,535.45c.07,4.36,2.51,3.95,5.97,3.27,1.02-.13,2.05-.04,3.06-.16,2.37-.21,3.58-2.95,5.96-3.61"/>
      <path class="cls-1" d="M417,831.45c-1.11,1.67-2.52,3.32-2,5.5"/>
      <path class="cls-1" d="M691.5,1162.95c-2.58,2.6-1.3,6.73-3.5,9.5"/>
      <path class="cls-1" d="M550,406.45c-2.23,3.67,1.33,6.62,2,10"/>
      <path class="cls-1" d="M548,491.95c1.23,1.37,3.4,2.18,2,4.5"/>
      <path class="cls-1" d="M254,1054.45c-.77,1.57-1.94,3.18-1,5"/>
      <path class="cls-1" d="M130.5,1093.95c-1.73-.2-3.05.86-4.5,1.5"/>
      <path class="cls-1" d="M661.5,276.95c2.25,1.56-.62,4.61,2,6"/>
      <path class="cls-1" d="M557,269.95c2.97,2.61,4.06,5.55,1,8.5"/>
      <path class="cls-1" d="M528.5,538.95c-2.2,2.04-2.71,4.78-1.5,7.5"/>
      <path class="cls-1" d="M197.5,1089.95c.33,1.77-.48,3.17-1.5,4.5"/>
      <path class="cls-1" d="M582.5,216.95c-.29,1.55.55,2.98.5,4.5"/>
      <path class="cls-1" d="M538.5,427.95c1.66,1.96,4.62,3.35,4,6.5"/>
      <path class="cls-1" d="M193,1169.45c-1.38.76-2.99,1.14-4,2.5"/>
      <path class="cls-1" d="M720,310.45c-.79,1.21-1.17,3-3,3"/>
      <path class="cls-1" d="M608.5,433.45c.72,2.73.16,6.22,3.5,7.5"/>
      <path class="cls-1" d="M546.5,492.45c-.89,1.16-1.99,1.82-3.5,1.5"/>
      <path class="cls-1" d="M150.5,1200.45c1.15.97,2.29-.26,3.5,0"/>
    </g>
  </g>
</svg>