<?xml version="1.0" encoding="UTF-8"?>
<svg id="_レイヤー_2" data-name="レイヤー 2" xmlns="http://www.w3.org/2000/svg" viewBox="0 0 130.34 64.23">
  <defs>
    <style>
      .cls-1 {
        fill: none;
        stroke: #fff;
        stroke-linecap: round;
        stroke-linejoin: round;
        stroke-width: 5px;
      }
    </style>
  </defs>
  <g id="_レイヤー_1-2" data-name="レイヤー 1">
    <g>
      <path class="cls-1" d="M2.5,61.73c3.41-2.49,3.93-6.65,5.27-10.12,3.21-8.35,7.4-11.01,13.93-5.95,11.62,8.99,23.91,7.94,37.33,6.47,7.34-.81,14.39-.66,21.72-3.25,10.95-3.87,21.17-8.74,30.84-15"/>
      <path class="cls-1" d="M54.93,8.29c-9.7,3.19-15.03,3.67-23.81,9.33-7.74,4.98-14.2,10.84-14.7,20.9"/>
      <path class="cls-1" d="M67.49,23.04c1.84-8.99,9.98-11.68,16.26-16.87-.77-1.58-2.38-2.65-4.65-2.45-5.68.5-11.23,1.88-17.03,1.74"/>
      <path class="cls-1" d="M90.7,43.93c-7.23-11.64-18.96-13.1-32.5-10.83"/>
      <path class="cls-1" d="M87.61,23.82c8.06,3.61,16.14,7.16,24.76,9.28l15.47-21.66"/>
      <path class="cls-1" d="M65.94,10.66c-7.38-.1-10.2,6.44-11.94,11-2.69,7.04-7.48,9.62-13.61,11.38-3.44.99-17.12,2.34-19.43,5.47"/>
      <path class="cls-1" d="M79.1,3.72s22.5-5.75,48.74,7.72c-17.84-.8-34.41,4.65-51.1,9.94-8.02,2.54-15.88,6.41-24.72,5.54"/>
      <path class="cls-1" d="M74.45,48.75c-16.25-10.23-26.55-8.67-32.5-10.83"/>
    </g>
  </g>
</svg>