<?xml version="1.0" encoding="UTF-8"?>
<svg id="_レイヤー_2" data-name="レイヤー 2" xmlns="http://www.w3.org/2000/svg" viewBox="0 0 178.31 63.34">
  <defs>
    <style>
      .cls-1 {
        fill: none;
        stroke: #fff;
        stroke-linecap: round;
        stroke-linejoin: round;
        stroke-width: 5px;
      }
    </style>
  </defs>
  <g id="_レイヤー_1-2" data-name="レイヤー 1">
    <g>
      <path class="cls-1" d="M175.81,2.5c-11.67,2.58-23.02,6.78-34.85,8.28-8.4,1.06-16.69,3.54-25.55,2.04-5.47-.92-11.21,1.72-16.94,2.38-11.16,1.28-22.74,1.21-33.28,5.91-10.99,4.9-22.69,9.05-25.76,23.12-.46,2.09-2.73,5.6-4.49,5.98-11.17,2.42-19.89,12.51-32.44,10.31"/>
      <path class="cls-1" d="M74.45,42.73c7.99-3,15.99-1.09,24.1-.48-5.22,5.66-12.33,6.43-18.73,8-12.9,3.16-26.24,1.5-39.41,1.78-1.91.04-3.15-1.19-4.64-1.96"/>
      <path class="cls-1" d="M142.93,24.16c-3.88-2.08-3.85-2-7.35-.79-14.8,5.1-30.09,6.64-45.64,6.2"/>
      <path class="cls-1" d="M140.99,25.71c-2.33,3.71-6.68,4.03-10.12,5.22-10.98,3.79-20.67,10.88-32.43,12.57"/>
      <path class="cls-1" d="M106.18,15.65c-9.16,7.46-17.88,16.05-30.2,17.6-6.79.86-12.54,2.95-17.79,7.13-5.2,4.14-11.43,4.73-17.78,4.67"/>
      <path class="cls-1" d="M164.2,7.14c-4.43,8.57-13.61,10.75-20.89,15.47"/>
      <path class="cls-1" d="M87.61,22.62c-8.21-.13-13.91,3.86-17.8,10.83"/>
      <path class="cls-1" d="M110.04,38.86c-5.91-3.95-9.34-3.34-13.15,2.32"/>
    </g>
  </g>
</svg>