<?xml version="1.0" encoding="UTF-8"?>
<svg id="_レイヤー_2" data-name="レイヤー 2" xmlns="http://www.w3.org/2000/svg" viewBox="0 0 145.88 62.21">
  <defs>
    <style>
      .cls-1 {
        fill: none;
        stroke: #fff;
        stroke-linecap: round;
        stroke-linejoin: round;
        stroke-width: 5px;
      }
    </style>
  </defs>
  <g id="_レイヤー_1-2" data-name="レイヤー 1">
    <g>
      <path class="cls-1" d="M2.5,59.71c3.41-2.49,35.16-18.49,41.7-13.43,11.62,8.99,23.91,7.94,37.33,6.47,7.34-.81,14.39-.66,21.72-3.25,10.95-3.87,21.17-8.74,30.84-15"/>
      <path class="cls-1" d="M84.57,13.98c-15.87,1.76-20.01,6.24-27.7,9.67-8.41,3.75-17.44,5.41-17.94,15.47"/>
      <path class="cls-1" d="M89.99,23.66c1.84-8.99,9.98-11.68,16.26-16.87-.77-1.58-2.38-2.65-4.65-2.45-5.68.5-11.23,9.79-17.03,9.65"/>
      <path class="cls-1" d="M119.39,39.33c-19.34,4.61-23.75-10.03-38.68-5.62"/>
      <path class="cls-1" d="M110.11,24.43c12.53-4.19,18.45,3.13,24.76,9.28l8.51-26.41"/>
      <path class="cls-1" d="M101.6,4.33s8.51-5.69,41.78,2.97c-17.84-.8-32.83,15.8-49.52,21.09-8.02,2.54-40.27,14.04-46.83,10.13"/>
      <path class="cls-1" d="M96.96,49.36c-16.25-10.23-26.55-8.67-32.5-10.83"/>
    </g>
  </g>
</svg>